<svg xmlns="http://www.w3.org/2000/svg" width="1920" height="1080" viewBox="0 0 1920 1080">
  <g>
    <path d="M1437.116,403.965c-.57,2.46-.883,4.99-1.213,7.5-.717,5.46-1.264,10.943-2.056,16.391a27.165,27.165,0,0,1-6.691,13.9,60.074,60.074,0,0,1-35.184,20.108c-4.723.893-9.438.872-13.817-1.728a12.9,12.9,0,0,1-4.358-3.971,30.377,30.377,0,0,1-3.358-6.512c-1.038-2.88-2.151-5.733-3.161-8.622-1.193-3.415-3.189-5.871-7-6.456a7.89,7.89,0,0,1-5.919-4.6,79.745,79.745,0,0,1-5.892-14.429q-2.023-6.823-4.131-13.621c-.779-2.5-1.371-2.711-4.1-1.775-1.881.646-3.74,1.392-5.664,1.876-7.911,1.993-15.022-.753-19.614-7.5a35.357,35.357,0,0,1-4.629-9.449,6.8,6.8,0,0,1,1.9-7.523,32.45,32.45,0,0,1,10.418-6.583c2.806-1.147,5.32-.549,6.734,2.14,2.234,4.248,3.868,8.755.653,13.374a5.422,5.422,0,0,0-.473.782,1.081,1.081,0,0,0,.433,1.576,15.629,15.629,0,0,0,8.468,1.487,3.632,3.632,0,0,0,3.238-2.861,36.1,36.1,0,0,0,1.057-6.323c.19-4.126.214-8.266.122-12.4-.112-5.022-1.6-7.167-6.526-7.906-5.707-.855-11.432-1.924-17.33-.917a71.127,71.127,0,0,0-12.936,3,43.657,43.657,0,0,0-17.1,11.973c-7.442,8.12-11.489,18.007-15.158,28.085a144.328,144.328,0,0,0-7.089,30.351,199.452,199.452,0,0,0-1.857,30.2c.109,5.97.056,11.942.074,17.913a44.235,44.235,0,0,0,.6,8.69,9.429,9.429,0,0,1,.194,2.284c-.3,6.45.685,12.832,1.167,19.228.632,8.38,1.776,16.728,2.9,25.062,1.329,9.86,2.992,19.671,5.149,29.388,2.589,11.659,5.5,23.234,8.98,34.665,2.009,6.593,4.114,13.137,6.666,19.549a133.954,133.954,0,0,0,10.85,20.714c4.9,7.945,9.92,15.819,14.864,23.738a25.265,25.265,0,0,1,1.7,3.242,1.578,1.578,0,0,1-1.079,2.177,14.725,14.725,0,0,1-3.606.534c-7.969-.139-15.857,1.246-23.835,1.144-3.955-.05-7.911.635-11.888.842-4.725.247-7.535-1.765-9.248-5.9-2.693-6.5-5.555-12.942-8.093-19.506-3.2-8.278-6.09-16.672-8.775-25.137a349.856,349.856,0,0,1-12.421-52.688c-1.3-8.461-2.177-16.975-2.969-25.51-1.107-11.938-.808-23.863-.569-35.783.133-6.7,1.275-13.387,2.16-20.054,1.548-11.677,3.38-23.318,4.839-35.006a138.251,138.251,0,0,0,1.092-24.734,61.686,61.686,0,0,0-6.508-25.147A41.936,41.936,0,0,0,1234,398.17c-2.79-3.923-2.992-3.938-7.453-1.736-2.883,1.423-5.735,2.912-8.654,4.258-1.655.764-2.68.406-3.4-1.177-1.2-2.643-2.345-5.32-3.345-8.044-1.668-4.547,1.581-12.323,7.487-14.725a9.811,9.811,0,0,1,5.855-.615c1.347.29,2.68.649,4.033.906,2.445.463,3.475-.565,2.893-3.058a36.823,36.823,0,0,0-5.131-11.22c-2.512-3.971-6.076-6.825-9.929-9.386s-8.081-2.521-12.4-1.981a1.355,1.355,0,0,0-1.228,1.184c-.076.789.593,1.087,1.19,1.1,3.629.106,5.461,2.376,6.629,5.433.763,2,1.526,4.005,2.133,6.054a2.12,2.12,0,0,1-1.46,2.936,71.327,71.327,0,0,1-13.173,3.962,6.089,6.089,0,0,1-6.065-2.434,31.879,31.879,0,0,1-5.933-10.293c-1.959-5.835-3.013-4.283-6.765-2.2a33.179,33.179,0,0,0-8.89,7.18c-6.014,6.844-7.742,14.734-5.632,23.54a10.635,10.635,0,0,0,2.889,5.129,69.529,69.529,0,0,0,9.774,7.593,1.7,1.7,0,0,0,2.619-1.45,6.891,6.891,0,0,0-.578-3.131c-.619-1.565-1.36-3.082-1.952-4.655-.805-2.14-.216-4.263,1.863-5,4.739-1.686,9.406-3.706,14.522-4.119a6.885,6.885,0,0,1,7.428,4.15,25.566,25.566,0,0,1,2.567,8.759,10.606,10.606,0,0,1-2.683,8.056,21.823,21.823,0,0,1-4.408,4,68.744,68.744,0,0,1-10.517,5.625c-2.644,1.219-5.381.957-8.087.157-3.523-1.042-7.057-2.054-10.547-3.2a75.475,75.475,0,0,0-8.465-2.044,20.111,20.111,0,0,0-13.356,1.967,30.878,30.878,0,0,0-3.216,1.772,6.555,6.555,0,0,1-6.984.323c-3.534-1.823-7.006-3.77-10.456-5.75a2.186,2.186,0,0,1-1-3.15c1.137-2.506,2.329-5,3.688-7.39a5.289,5.289,0,0,1,6.266-2.668c2.229.529,4.421,1.221,6.613,1.894,1.021.314,1.986.813,3.008,1.124,1.527.464,2.353-.086,2.435-1.75a81.033,81.033,0,0,1,2.857-18.1c2.923-10.343,7.735-19.621,15.536-27.184a61.6,61.6,0,0,1,7.11-6.5,5.178,5.178,0,0,0,1.439-1.723,1.378,1.378,0,0,0-.21-1.235,1.36,1.36,0,0,0-1.173-.444,18.3,18.3,0,0,0-3.183,1.759c-2.245,1.6-4.385,3.34-6.635,4.928a92.734,92.734,0,0,1-14.566,8.708c-2.363,1.089-4.672,2.3-6.989,3.481-3.8,1.945-3.973,2.353-2.089,6.366a66.852,66.852,0,0,1,3.655,8.913,18.812,18.812,0,0,1,.83,5.882,5.65,5.65,0,0,1-3.077,5.265c-3.648,1.941-7.307,3.866-11,5.712-1.435.716-2.621.239-3.414-1.311-.624-1.219-1.036-2.546-1.558-3.818-.754-1.839-1.457-3.7-2.308-5.5a1.8,1.8,0,0,0-2.724-.757c-5.313,2.688-8.61,8.351-6.386,14.072a13.3,13.3,0,0,1,.515,1.763,12.663,12.663,0,0,1-3.61,12.623,19.128,19.128,0,0,1-15.435,5.727c-4.387-.329-7.007-3-7.215-7.37a13.361,13.361,0,0,1,1.45-6.652,34.348,34.348,0,0,0,1.779-4.219,2.062,2.062,0,0,0-1.459-2.51,5.565,5.565,0,0,0-1.34-.286c-7.176-.387-14.312-1.408-21.53-1.163a12.451,12.451,0,0,0-6.848,2.2,93.625,93.625,0,0,1-12.776,7.234,39.932,39.932,0,0,1-4.267,1.665,9.684,9.684,0,0,1-9.485-1.908,34.824,34.824,0,0,1-8.989-11.5c-1.42-2.683-.785-4.971,1.711-6.88a18.275,18.275,0,0,1,10.213-3.695c1.375-.083,2.758-.055,4.129-.167,1.342-.11,1.753-1.137.932-2.294-.529-.747-1.157-1.424-1.728-2.141-6.028-7.564-11.575-15.432-15.432-24.37-3.786-8.774-5.449-17.793-3.453-27.319a156.781,156.781,0,0,1,7.305-24.151c3.628-9.427,7.492-18.762,11.219-28.15.9-2.275,1.717-4.588,2.488-6.912a1.767,1.767,0,0,0-1.292-2.5c-1.156-.4-2.37-.629-3.526-1.026-6.528-2.236-12.211-5.638-16.019-11.636a16.744,16.744,0,0,1,1.411-20.052c3.274-3.9,7.546-6.248,12.193-7.883a99.409,99.409,0,0,1,10.648-2.8,12.372,12.372,0,0,1,5.915.229,8.622,8.622,0,0,1,5.43,3.941,25.748,25.748,0,0,1,3.5,8.928,10.811,10.811,0,0,1-.231,4.539,7.118,7.118,0,0,1-4.53,5.368,30.66,30.66,0,0,1-11.584,2.555c-2.626-.043-3.567-.726-4.324-3.254-.784-2.62-1.4-5.292-2.139-8.157-1.388.854-1.539,2.144-2.075,3.15-.573,1.076-.976,2.243-1.448,3.373-2.761,6.609-2.913,6.319,3.989,8.108a97.8,97.8,0,0,0,31.41,2.969,120.48,120.48,0,0,0,24.421-4.057c4.271-1.2,8.5-2.573,12.736-3.888a21.577,21.577,0,0,0,2.581-.956c1.425-.649,1.843-1.507,1.382-2.945-.468-1.455-1.063-2.87-1.58-4.311-.414-1.152-.744-2.337-1.2-3.472-1.417-3.53-1.429-6.831,1.257-9.86,1.471-1.657,1.305-3.675.874-5.674q-.967-4.488-1.968-8.97a23.2,23.2,0,0,1-.388-6.4,6.382,6.382,0,0,1,2.8-5.022,33.666,33.666,0,0,1,8.247-3.977c1.537-.579,2.225-.29,2.984,1.185,1.189,2.315,2.3,4.67,3.446,7.006.472.963.94,1.927,1.427,2.882,2.176,4.265,3.825,5.1,8.4,4.274a1.435,1.435,0,0,0,1.207-2.021,23.512,23.512,0,0,0-1.666-3.258c-5.7-9.064-12.731-16.794-21.966-22.426a55.411,55.411,0,0,0-17.31-7.169c-9.026-1.924-16.954.6-23.794,6.665a55.376,55.376,0,0,0-4.536,4.554,38.443,38.443,0,0,0-3.355,4.353c-6.339,9.562.231,19.358,6.472,22.759a1.325,1.325,0,0,0,1.222-.093,1.629,1.629,0,0,0,.358-1.247c-.31-2.581-.582-5.174-1.074-7.724a3.937,3.937,0,0,1,2.412-4.82,42.763,42.763,0,0,1,9.863-3.712c8.824-1.931,16.4,3.639,17.219,12.6a9.9,9.9,0,0,1-.168,2.73,21.123,21.123,0,0,1-12.454,16.006,38.1,38.1,0,0,1-12.861,3.247c-5.616.474-10.249-1.459-13.369-6.321a36.206,36.206,0,0,0-5.955-6.957,12.916,12.916,0,0,1-3.912-7.108,53.945,53.945,0,0,1-1.6-12.258,12.81,12.81,0,0,1,3.449-8.759c9.892-10.628,21.441-18.653,35.614-22.522,7.784-2.124,15.462-2.087,22.863,1.439,4.177,1.99,8.053,4.555,10.773,8.365,7.343,10.286,16.566,18.82,25.432,27.691a16.188,16.188,0,0,0,1.357,1.237c1.2.955,2.266.81,2.987-.653,1.421-2.879,2.712-5.824,4.006-8.764a104.81,104.81,0,0,0,7.936-24.869,22.419,22.419,0,0,0-.464-9.54,12.63,12.63,0,0,0-4.622-6.664c-1.02-.83-2-.5-2.445.864-.911,2.762-1.695,5.567-2.662,8.309a32.812,32.812,0,0,1-2.22,5.027,9.457,9.457,0,0,1-5.869,4.84c-4.93,1.305-9.885,1.983-14.929.476-4.048-1.209-7.1-3.477-8.693-7.509a8.278,8.278,0,0,1-.139-6.268,22.763,22.763,0,0,1,12.208-13.061,45.875,45.875,0,0,1,15.968-4.04c9.333-.514,17.513,2.261,23.462,10.01a54.584,54.584,0,0,1,4.794,7.275c1.1,2.027,1.5,2.042,3.473.531,1.458-1.117,2.894-2.264,4.376-3.349,8.392-6.145,17.532-10.787,27.887-12.293a66.046,66.046,0,0,1,26.875,1.178c11.51,3.087,21.971,8.423,32.072,14.575,2.222,1.354,4.408,2.766,6.631,4.118,2.35,1.429,2.849,1.335,4.238-1.25a40.018,40.018,0,0,1,6.856-9.144,25.706,25.706,0,0,1,9.151-5.975,44.566,44.566,0,0,1,15.2-3.219,53.692,53.692,0,0,0,5.942-.469,28.519,28.519,0,0,1,8.686.061,17.893,17.893,0,0,0,6.69.148c.024-1.375-.932-1.765-1.612-2.276a51.942,51.942,0,0,0-20.409-9.066,59.3,59.3,0,0,0-22.817-.051,7.4,7.4,0,0,0-1.323.362,1.769,1.769,0,0,0-.988,2.279c.423.977,1.005,1.884,1.491,2.835.835,1.632,1.7,3.25,2.45,4.923a1.56,1.56,0,0,1-1.062,2.189c-3.361,1.045-6.729,2.073-10.313,2.05a7.247,7.247,0,0,1-6.984-4.3c-1.484-2.948-1.879-5.717.092-8.653a13.13,13.13,0,0,1,5.446-4.758,119,119,0,0,1,16.343-6.075,65.2,65.2,0,0,1,14.87-2.772,38.464,38.464,0,0,1,22.766,5.865c3.787,2.325,7.512,4.76,10.031,8.6a1.483,1.483,0,0,0,1.161.477c.491-.034.681-.554.72-1.027.316-3.809.74-7.614.9-11.429a24.582,24.582,0,0,1,9.647-19.013,22.346,22.346,0,0,1,10.936-4.5,38.56,38.56,0,0,1,22.407,3.148c5.841,2.78,8.7,7.576,9.415,13.719a37.627,37.627,0,0,1-.228,11.447,30.118,30.118,0,0,0,1.085,15.394c.478,1.453.846,2.946,1.377,4.379a2.413,2.413,0,0,0,2.886,1.694,20.781,20.781,0,0,0,2.256-.424c12.386-2.717,24.346-1.145,35.959,3.65,4.667,1.927,9.309,3.926,13.885,6.06a4.024,4.024,0,0,0,5.3-1.022c1.865-2.027,3.875-3.918,5.817-5.874a20.437,20.437,0,0,1,4.678-3.68c4.755-2.586,9.637-3.758,14.971-1.661a42.791,42.791,0,0,1,7.836,3.774,138.9,138.9,0,0,1,26.991,22.687,38.158,38.158,0,0,1,10.43,27.18,59.792,59.792,0,0,1-1.216,9.086,121.863,121.863,0,0,1-8.279,26.694c-.418.987-.847,1.97-1.211,2.977-.307.848-.9,1.839-.3,2.616.845,1.079,1.987.244,2.966-.008a41.74,41.74,0,0,1,7.627-1.6,35.477,35.477,0,0,1,15.74,2.377,55.645,55.645,0,0,1,21.087,14.311,37.251,37.251,0,0,1,8.747,15.424c1.832,6.82,0,12.788-4.034,18.13-5.32,7.051-12.452,11.33-21.355,12.029a27.753,27.753,0,0,1-20.813-6.83,37.264,37.264,0,0,1-3.583-3.559,17.669,17.669,0,0,1-1.914-21.69c5.033-7.673,11.617-13.4,21.128-14.835,1.346-.2,2.668-.562,3.945-.837.153-1.255-.767-1.369-1.355-1.731-.65-.4-1.375-.676-2.037-1.058a16.712,16.712,0,0,0-15.453-.847c-3.541,1.45-7.112,2.837-10.6,4.418-9.058,4.112-18.076,8.312-27.105,12.487a11.582,11.582,0,0,0-2,1.108,1,1,0,0,0-.095,1.6c1.591,1.429,3.211,2.834,4.911,4.13,9.007,6.866,18.059,13.674,27.06,20.549,4.621,3.529,9.142,7.188,13.761,10.719,2.186,1.672,4.472,3.219,6.76,4.751a42.518,42.518,0,0,1,5.322,4.351,24.767,24.767,0,0,1,7.809,15.217,41.823,41.823,0,0,1-2.027,19,17.822,17.822,0,0,1-9.953,10.835c-4.163,1.925-8.36,3.777-12.537,5.671-3.484,1.581-6.976,3.146-10.436,4.777-1.939.914-2.265,1.776-1.423,3.641.5,1.112,1.158,2.155,1.755,3.223a73.583,73.583,0,0,1,7.516,20.138,17.607,17.607,0,0,1-4.143,15.826,68.37,68.37,0,0,1-10.239,9.855c-5.333,4.13-10.935,7.863-16.53,11.615-4.424,2.969-4.5,3.353-1.93,8.076.658,1.209,1.427,2.357,2.113,3.551a34.5,34.5,0,0,1,4.176,11.113,19.292,19.292,0,0,1-2.757,14.048,17.419,17.419,0,0,1-9.144,7.315,28.185,28.185,0,0,1-9.882,1.852c-5.206-.039-10.412-.028-15.618-.029-6.651,0-12.488,2.238-16.608,7.449-5.257,6.649-12.593,9.451-20.127,12.091a16.657,16.657,0,0,1-6.812.7,10.036,10.036,0,0,1-8.8-5.713,29.646,29.646,0,0,1-3.38-15.967,11.676,11.676,0,0,1,1.354-4.821,5.119,5.119,0,0,1,3.075-2.594c4.042-1.187,8.078-1.575,12.182-.173,2.313.791,3.579,2.225,3.635,4.691.035,1.53.037,3.064.163,4.587.131,1.573,1.143,2,2.6,1.161a16.4,16.4,0,0,0,1.911-1.268,33.511,33.511,0,0,0,12.569-19.7,52.6,52.6,0,0,0,.865-16.442,110.226,110.226,0,0,0-9.55-34.355C1438.494,405.01,1438.406,404.154,1437.116,403.965Zm-372.594-63.8c-7.189.393-12.977-2.693-17.985-7.593a10.2,10.2,0,0,1-1.344-1.824c-.317-.492.248-1.291.847-1.306,1.58-.037,2.96.694,4.415,1.129,5.285,1.582,10.592,3.021,16.18,2.96,8.454-.091,14.5-3.935,18.421-11.426,3.762-7.181,5.177-14.993,6.574-22.826a8.267,8.267,0,0,0-.1-2.726,12.531,12.531,0,0,0-6.355-9.542c-7.4-4.18-11.3-10.94-13.342-18.942-.416-1.628-.68-3.293-1.051-4.933a1.178,1.178,0,0,0-1.744-.86c-.534.29-1.039.636-1.542.978a51.034,51.034,0,0,0-10.736,9.959c-6.005,7.328-11.77,14.855-17.557,22.36a29.979,29.979,0,0,0-4.841,9.318c-1.776,5.6-2.051,11.416-2.643,17.185a21.289,21.289,0,0,0,.277,4.107c.115,1.216.4,2.427.412,3.641a46.924,46.924,0,0,0,2.223,13.081c2.146,7.13,5.47,13.556,11.443,18.4a88.257,88.257,0,0,0,18.509,11.809,74.525,74.525,0,0,0,21.988,6.2,14.921,14.921,0,0,0,1.832.08c1.67.006,3.1-.559,3.626-2.237.751-2.382,2.633-4.737.717-7.338a12.715,12.715,0,0,0-2.376-2.132c-2.025-1.629-4.115-3.179-6.106-4.847-1.933-1.62-1.912-2.911.217-4.4a29.412,29.412,0,0,1,5.194-2.893c6.051-2.6,10.331-1.742,14.982,2.951a18.237,18.237,0,0,1,3.191,3.876c2.236,4.1,3.61,2.983,6.1.317.209-.223.42-.446.61-.685,1.126-1.413,1.164-2.222-.116-3.638-1.742-1.928-3.645-3.711-5.384-5.643-6.029-6.7-12.009-13.445-18.026-20.156-1.39-1.55-2.3-1.751-3.969-.538a70.408,70.408,0,0,1-9.214,5.119A26.231,26.231,0,0,1,1064.522,340.167Zm202.584-1.829v-.029c-2.143,0-4.286.015-6.43,0a19.4,19.4,0,0,1-8.769-2.421,8.988,8.988,0,0,1-4.4-5.069,10.509,10.509,0,0,1,1.262-9.655,22.76,22.76,0,0,1,14.57-10.355,28.113,28.113,0,0,1,15.356.835,21.446,21.446,0,0,1,10.845,7.326,29.259,29.259,0,0,0,2.85,2.982,1.375,1.375,0,0,0,2.047.049,9.792,9.792,0,0,0,.94-1c6.369-7.624,11.136-16.037,13.341-25.849,1.28-5.694,1.952-11.46,2.7-17.22a16.814,16.814,0,0,0-1.931-9.322,6.71,6.71,0,0,0-3.518-3.471,25.409,25.409,0,0,0-4.323-1.493c-5.6-1.224-11.282-.958-16.912-.439a8.753,8.753,0,0,0-7.163,4.458c-2.021,3.861-2.34,8.174-2.341,12.484a1.674,1.674,0,0,0,.134.437,1.5,1.5,0,0,0,1.833.933,4.7,4.7,0,0,0,1.19-.659c3.978-3.464,8.986-5.2,13.362-8a8.688,8.688,0,0,1,1.671-.756,2.253,2.253,0,0,1,2.853.821c1.451,2.156,2.826,4.364,4.191,6.576,1.849,3,1.414,5.886-.695,8.521a27.228,27.228,0,0,1-10.859,8.249,12.652,12.652,0,0,1-11.495-.411,30.137,30.137,0,0,1-7.094-5.02c-1.406-1.408-2.854-2.777-4.219-4.224-4.9-5.2-10.762-7.373-17.856-5.77a21.237,21.237,0,0,1-5.94.406c-4.385-.254-7.969-1.985-10.42-5.757-.667-1.026-1.364-2.035-2.021-3.068-1.656-2.6-2.581-5.541-3.758-8.36-.555-1.33.128-2.377,1.546-2.8a10.579,10.579,0,0,1,1.346-.281c4.082-.64,8.165-1.266,12.246-1.908,2.117-.333,4.234-.664,6.342-1.047a3.7,3.7,0,0,0,3.238-3.388,17.465,17.465,0,0,0,.1-3.2,4.217,4.217,0,0,0-2.729-3.91,17.779,17.779,0,0,0-3.041-1.018c-3.883-.857-7.763-1.757-11.68-2.432-4.809-.829-8.442.843-10.783,5.128a29.577,29.577,0,0,0-3.272,15.972,37.364,37.364,0,0,0,2.177,9.83c5.636,16.837,11.189,33.7,17.464,50.318,2.161,5.724,4.358,11.445,6.835,17.037,3.608,8.147,8.766,15.42,13.51,22.918.884,1.4,1.724,3.083,3.81,2.792,1.8-.252,2.275-1.888,2.909-3.256q5.021-10.827,10-21.673c.256-.556.537-1.1.75-1.676.718-1.934.107-3.017-1.958-3.108C1272.314,338.251,1269.708,338.338,1267.106,338.338Zm-93.757-157.451a11.515,11.515,0,0,0,1.959.283c1.676-.145,3.357-.289,5.019-.542,16.943-2.576,28.239,8.074,32.645,21.875a12.027,12.027,0,0,1-1.986,11.32,29.831,29.831,0,0,1-5.387,5.609,36.114,36.114,0,0,0-2.794,2.367,2.778,2.778,0,0,0-.808,2.952,52.829,52.829,0,0,0,5.778,12.46,5.2,5.2,0,0,0,6.429,2.183c1.742-.564,3.438-1.284,5.126-2a87.255,87.255,0,0,1,14.7-5.2c6.979-1.58,13.034.268,18.325,4.865a32.113,32.113,0,0,1,5.565,6.087c2.069,3.034,4.181,6.039,6.287,9.048.7,1,1.387,2.022,2.175,2.954a1.931,1.931,0,0,0,2.087.6,12.959,12.959,0,0,0,1.714-.645q10.245-4.643,20.478-9.307a35.666,35.666,0,0,0,3.271-1.67c1.837-1.08,2.173-1.962,1.129-3.756a39.2,39.2,0,0,1-3.892-9.291,16.262,16.262,0,0,1,1.868-13.243,27.939,27.939,0,0,1,3.941-5.059c3.744-3.849,8.06-7.04,12.053-10.6.684-.61,1.432-1.148,2.144-1.728,4.823-3.931,10.03-7.022,16.422-7.54.451-.037,1.02-.18,1.012-.686a1.5,1.5,0,0,0-.687-1.037c-4.477-2.652-8.989-5.244-13.465-7.9a7.569,7.569,0,0,0-4.838-1.076c-5.166.589-10.329,1.211-15.492,1.825a2.892,2.892,0,0,0-2.628,2.221c-.369,1.324-.647,2.675-.945,4.018a68.762,68.762,0,0,1-5.855,17.352c-3.84,7.3-9.277,12.925-17.251,15.621a56.851,56.851,0,0,1-9.769,2.52c-5.272.781-10.586,1.541-15.94.3-8.944-2.069-15.2-6.887-17.334-16.239a28.745,28.745,0,0,1-.563-10.922c.434-2.813-.031-3.544-2.448-4.763-1.229-.62-2.548-1.071-3.746-1.741a47.274,47.274,0,0,1-5.876-3.569c-7.566-5.83-6.241-16.6,2.469-20.521a23.054,23.054,0,0,1,3.033-1.046,29.729,29.729,0,0,1,11.388-.678c1.179.119,2.825,1.159,3.436.071.816-1.454-1.024-2.3-1.966-3.132a17.07,17.07,0,0,0-3.814-2.5,25.38,25.38,0,0,0-10.149-2.684c-4.893-.175-9.807-.252-14.692,0a21.975,21.975,0,0,0-14.385,6.337C1182.09,169.468,1177.972,174.954,1173.349,180.887ZM1361.411,358.82c.4,5.038.7,10.231,1.26,15.4a66.392,66.392,0,0,1,.582,7.312,46.414,46.414,0,0,0,1.132,8.174c.856,4.862,6.121,9.487,11.917,9.821a1.343,1.343,0,0,0,1.092-.564,1.616,1.616,0,0,0-.275-1.243c-1.156-1.8-2.429-3.535-3.544-5.363-1.1-1.808-.735-2.781,1.144-3.608,6.029-2.653,11.96-1.829,17.831.53,1.921.772,2.641,2.358,2.844,4.346,1.184,11.617-6.7,17.51-14.62,19.026-5.119.981-10.053-.068-14.852-1.847-2.152-.8-4.248-1.741-6.389-2.567a1.185,1.185,0,0,0-1.621,1.1c.191,2.28.435,4.558.766,6.822.315,2.152,1.077,2.661,3.1,2.166,2.23-.544,4.419-1.278,6.667-1.724,3.707-.735,5.759.213,7.642,3.516a20.588,20.588,0,0,1,2,4.618,12,12,0,0,0,5.495,7.032,65.519,65.519,0,0,1,11.641,9.645c.951,1,1.99,1.912,2.909,2.937,2.493,2.78,6.339,2.909,9.264-.12a45.094,45.094,0,0,0,6.733-8.67c4.592-7.907,5.976-16.628,6.671-25.536a12.405,12.405,0,0,0-.157-2.285c-.2-1.825-.372-3.654-.644-5.468a49.052,49.052,0,0,0-9.133-22.768c-1.456-1.931-3.091-2.828-5.51-2.222-2.375.595-4.773,1.1-7.176,1.577a24.066,24.066,0,0,1-4.53.626c-3.578,0-5.771-1.561-6.873-4.948-.709-2.176-1.127-4.447-1.665-6.678-.466-1.933-.881-3.88-1.387-5.8a4.586,4.586,0,0,0-3.383-3.4c-5.286-1.559-10.547-3.2-15.836-4.748-2.123-.62-2.942-.039-3.093,2.022C1361.355,356.835,1361.411,357.758,1361.411,358.82Zm31.274-18.434a10.928,10.928,0,0,0,1.3,1.186c1.217.644,2.437,1.287,3.684,1.87,14.179,6.623,26.294,16.168,37.525,26.865,7.867,7.493,15.393,15.345,23.091,23.017a49.5,49.5,0,0,0,4.383,4.042,183.2,183.2,0,0,0,14.959,10.641c2.977,1.878,5.868,3.925,8.977,5.553,9.727,5.092,18.208,2.8,23.685-6.278,3.667-6.08,3.125-12.582,1.619-19.126-.167-.726-.42-1.625-1.239-1.811-1.129-.256-1.493.825-2.017,1.526-.549.736-1,1.544-1.567,2.265-1.792,2.285-3.332,4.779-5.529,6.728-2.771,2.459-5.708,4.752-9.421,5.465-6.913,1.327-13-.7-18.4-5.051a.833.833,0,0,1-.231-1.213,1.607,1.607,0,0,1,1.18-.471c2.124.272,4.241.609,6.351.974a22.894,22.894,0,0,0,11.783-.845c5.657-2.025,9.9-5.785,11.386-11.664,1.262-5,.321-10.034-1.956-14.74a6.872,6.872,0,0,0-4.832-3.881c-1.489-.353-2.981-.709-4.489-.957-7.015-1.152-13.964-1.227-20.872.9-3.5,1.077-7.142,1.7-10.713,2.557a34.753,34.753,0,0,1-10.509.569,26.472,26.472,0,0,1-15.1-6.078,41.377,41.377,0,0,1-7.861-8.325c-3.07-4.387-6.336-8.647-9.22-13.151-1.8-2.815-4-4.038-7.259-3.517C1405.372,338.4,1399.341,339.338,1392.685,340.386Zm59.479-158.28a25.786,25.786,0,0,0-.013-2.753c-.735-6.783-3.722-12.266-9.628-15.868a32.7,32.7,0,0,0-12.348-4.784c-4.258-.606-8.381-1.7-12.545-2.692-5.875-1.4-10.978.845-14.05,6.072a43.931,43.931,0,0,0-2.726,5.809c-7.117,17.6-13.108,35.61-19.865,53.34a10.972,10.972,0,0,0-.674,2.654,2.411,2.411,0,0,0,2.588,2.564,15.373,15.373,0,0,0,3.1-.789q8.889-3.094,17.752-6.26a31.464,31.464,0,0,0,3.77-1.676,1.915,1.915,0,0,0,1.045-2.316c-.366-1.323-.836-2.619-1.316-3.907a110.672,110.672,0,0,1-5.049-15.721c-1.137-5.394.706-8.494,5.9-10.212,3.232-1.07,4.3-.852,6.373,1.8,1.708,2.181,3.708,4.068,5.577,6.088a6.443,6.443,0,0,0,7.11,1.871,44.644,44.644,0,0,0,5.546-2.168c2.642-1.211,5.191-2.63,7.843-3.816,2.216-.991,3.658-.117,3.831,2.216a9.574,9.574,0,0,1-.206,2.726,10.72,10.72,0,0,1-6.993,7.909,26.276,26.276,0,0,1-9.855,1.937c-1.374,0-2.75.068-4.12.172-.191.014-.383.395-.514.639-.044.082.065.293.159.4a8.114,8.114,0,0,0,3.521,2.06c9.507,3.308,18.713-.733,22.676-10.108A38,38,0,0,0,1452.164,182.106Zm72.363,164.311v-.008c2.141,0,4.284.067,6.422-.016,3.079-.12,3.585-.533,4.233-3.692a33.03,33.03,0,0,0,.645-5.448c.222-6.176-1.133-12.152-2.539-18.1a10.372,10.372,0,0,0-5.035-6.824c-3.834-2.222-7.622-4.534-11.542-6.595-12.865-6.763-26.307-12.3-39.52-18.315a26.787,26.787,0,0,0-10.215-2.4c-.9-.031-1.944-.146-2.529.7-.67.965.173,1.7.676,2.431.607.882,1.238,1.747,1.885,2.6q11.772,15.532,23.553,31.059c1.293,1.705,2.543,3.446,3.893,5.106,1.61,1.979,2.568,2.205,4.723,1.019s4.167-2.568,6.308-3.746a64.128,64.128,0,0,1,7.356-3.722c4.643-1.822,8.236-.782,11.516,2.94a25.379,25.379,0,0,1,4.432,7.97,7.073,7.073,0,0,1-1.486,7.66,11.119,11.119,0,0,1-4.9,3.269,42.082,42.082,0,0,0-4.635,1.952c-.623.3-1.557.686-1.265,1.621.195.627,1.008.53,1.6.535C1520.245,346.427,1522.386,346.417,1524.527,346.417Zm-14.348-132.946a24.791,24.791,0,0,0-3.373-14.133c-2.784-4.64-6.524-8.163-12.189-8.8-5.081-.569-9.678.978-13.92,3.694a1.057,1.057,0,0,0,.069,1.872c1.857,1.066,3.752,2.067,5.617,3.118,4.651,2.621,5.916,6.926,4.106,11.777a50.87,50.87,0,0,1-2.622,6.361,30.139,30.139,0,0,0-3.383,14.136,50.6,50.6,0,0,1-2,11.736,10.984,10.984,0,0,1-2.438,4.368,18.081,18.081,0,0,1-10.19,5.8,49.3,49.3,0,0,1-8.607,1.349,10.437,10.437,0,0,0-6.618,2.844,3.327,3.327,0,0,0-.936,3.761c.538,1.126,1.6,1.306,2.694,1.411a13.674,13.674,0,0,0,7.52-1.585c7.41-3.668,14.57-7.788,21.8-11.78a61.465,61.465,0,0,0,13.935-10.327C1506.809,231.932,1509.727,223.248,1510.179,213.471Zm-235.33-24.148a15.426,15.426,0,0,0-1.455-7.46,44.123,44.123,0,0,0-21.1-22.128,15.521,15.521,0,0,0-2.111-.9c-1.357-.443-2.357.245-2.6,1.732a5.722,5.722,0,0,0-.094.912c-.01,7.195,0,14.39-.025,21.585a4.526,4.526,0,0,0,2.691,4.415,43.041,43.041,0,0,1,4.4,2.463c1.736,1.145,1.8,2.221.294,3.707-3.7,3.661-7.441,7.281-11.143,10.939a35.317,35.317,0,0,0-2.458,2.716,1.388,1.388,0,0,0-.046,1.722c1.672,2.26,3.5,4.468,6.695,4.046,4.852-.641,9.71-1.319,14.312-3.151a15.772,15.772,0,0,0,7.183-5.535A30.629,30.629,0,0,0,1274.849,189.323Zm81.433,132.4a25.768,25.768,0,0,1,3.206.018c7.119.9,14.288,1.431,21.327,2.924a45.09,45.09,0,0,0,4.985.7c1.174.114,1.6-.443,1.449-1.715a17.813,17.813,0,0,0-.3-1.809q-2.12-9.624-4.267-19.242a10.886,10.886,0,0,0-.724-2.165,1.826,1.826,0,0,0-2.293-1.008,13.39,13.39,0,0,0-1.709.652c-5.113,2.026-10.2,4.117-15.346,6.061a117.976,117.976,0,0,0-15,6.84,43.13,43.13,0,0,0-12.246,9.513,13.773,13.773,0,0,0-1.331,1.851,1.009,1.009,0,0,0-.029.863.863.863,0,0,0,.736.361c1.183-.29,2.358-.624,3.514-1.01A63.685,63.685,0,0,1,1356.282,321.719Zm24.3-60.819c.025-.375.054-1.6.2-2.811a8.244,8.244,0,0,1,4.2-6.715c1.6-.888,3.161-1.854,4.755-2.757,4.251-2.408,8.552-3.816,13.548-2.025,3.335,1.195,6.352-.151,8.65-2.75a39.719,39.719,0,0,0,3.5-4.809c1.377-2.133,1-3.067-1.389-3.467-3.313-.556-6.675-.858-9.96-1.538a10.647,10.647,0,0,0-8.289,1.641,66.789,66.789,0,0,0-10.031,7.972,83.153,83.153,0,0,0-16.849,22.715c-1.994,3.942-3.477,8.145-5.144,12.248-.341.84-.622,1.857.244,2.541.848.67,1.734.087,2.566-.261.282-.118.554-.26.827-.4q11.685-5.852,23.367-11.71a15.843,15.843,0,0,0,1.989-1.133c.629-.439,1.272-1,.817-1.882a1.646,1.646,0,0,0-2-.684c-1.791.386-3.57.835-5.351,1.27C1380.855,267.661,1380.491,267.366,1380.581,260.9Zm-253.892-37.519c-.724.039-2.256.059-3.77.23a1.531,1.531,0,0,0-1.365,1.585c-.112,2.121.763,3.337,2.7,3.548a34.692,34.692,0,0,0,3.665.087c1.836,0,3.672,0,5.507-.038a4.72,4.72,0,0,1,5.136,3.637,30.521,30.521,0,0,1,1.444,6.7c.207,2.74.626,5.464.948,8.195a3.379,3.379,0,0,0,2.02,2.849c.831.389,1.662.78,2.508,1.136q8.667,3.648,17.345,7.273c1.551.643,3.142,1.193,4.734,1.73a.913.913,0,0,0,.782-.311.927.927,0,0,0,.082-.833c-1.423-2.531-2.813-5.083-4.35-7.544-4.214-6.75-8.617-13.322-14.339-18.982C1143.5,226.483,1136.17,223.446,1126.689,223.381Zm228.963-4.758a44.436,44.436,0,0,0-3.05-18.85,26.994,26.994,0,0,0-3.662-6.32c-1.37-1.833-2.619-1.711-3.888.292a9.031,9.031,0,0,0-1.4,6.068c.49,4.692,1.385,9.346,1.238,14.113-.195,6.353-2.4,11.571-7.773,15.245-1.884,1.289-3.737,2.624-5.585,3.965a1,1,0,0,0,.174,1.56,5.546,5.546,0,0,0,1.279.443c5.579.845,11.157,1.7,16.745,2.48,2.391.334,3.616-.431,3.925-2.7C1354.513,228.577,1355.218,222.217,1355.652,218.623ZM1462.13,419.771c-.716.3-.967.712-.883,1.166.39,2.1.865,4.191,1.258,6.294q2.359,12.631,5.725,25.033c1.925,7.137,3.372,8.709,10.032,11.328.569.224,1.145.436,1.731.607,2.577.755,3.438.413,4.863-2.021.695-1.186,1.332-2.41,1.93-3.649.631-1.306.473-1.935-.724-2.717-4.224-2.758-8.353-5.691-12.738-8.168-5.291-2.99-5.088-4.592-.268-7.942,3.513-2.441,6.87-5.108,10.255-7.728,1.5-1.162,1.327-2.186-.472-3.029-2.075-.972-4.2-1.843-6.283-2.8-4.31-1.967-8.606-3.967-12.918-5.93A9.822,9.822,0,0,0,1462.13,419.771ZM1323.189,168.227c1.377,0,2.754.015,4.131,0a24.21,24.21,0,0,0,2.749-.126c5.344-.689,6.252-2.89,2.935-7.261a16.112,16.112,0,0,0-5.888-5.017c-3.9-1.846-7.92-3.24-12.334-3.151-3.671.074-7.344.033-11.016.065-.917.007-1.836.065-2.748.158a3.069,3.069,0,0,0-2.9,2.5,48.409,48.409,0,0,0-1.292,8.612c-.1,1.393.354,2.01,1.7,2.279a42.538,42.538,0,0,0,8.187.991,53.383,53.383,0,0,1,7.327.316A69.589,69.589,0,0,0,1323.189,168.227Zm-148.056,35.636c-3.79,4.281-4.786,9.529-4.461,14.865a53.721,53.721,0,0,0,9.487,26.909c2.3,3.435,4.784,6.718,7.4,9.907a51.709,51.709,0,0,0,11.053,9.546,1.393,1.393,0,0,0,1.263.063,1.43,1.43,0,0,0,.452-1.192q-1.013-6.1-2.141-12.18c-.388-2.1-.8-4.2-1.307-6.281-.515-2.13-1.08-2.406-3.3-1.812-.737.2-1.458.456-2.185.692-2.035.66-4.051,1.386-6.108,1.965s-3.026-.011-3.1-2.062c-.194-5.187-1.249-10.314-1-15.532.1-1.981-.086-3.973-.042-5.958.055-2.485-.65-4.377-3.054-5.628-3.8-1.979-4.706-5.379-3.945-9.36C1174.4,206.477,1174.8,205.177,1175.133,203.863Zm283.291,148.083c.977,0,2.048-.005,3.119,0a8.852,8.852,0,0,0,8.457-5.269,64.576,64.576,0,0,0,4.276-12.089c.3-1.079-.586-1.753-1.691-1.281-1.687.72-3.325,1.552-4.987,2.328a60.047,60.047,0,0,1-10.729,4,6.017,6.017,0,0,1-6.871-2.377c-1.364-1.836-2.578-3.787-3.8-5.722-.735-1.161-1.343-2.4-2.053-3.58-.306-.51-.662-1.139-1.353-1.066s-.923.769-1.006,1.346c-.7,4.837-1.611,9.644-1.447,14.581a5.616,5.616,0,0,0,3.5,5.387C1448.433,350.415,1453.1,352.255,1458.424,351.946Zm2.1-137.687a14.657,14.657,0,0,0-8.623,2.8c-1.48,1.085-2.958,2.181-4.355,3.368a30.167,30.167,0,0,1-7.272,4.746c-2.135.948-2.187,1.452-.7,3.391.746.97,1.466,1.964,2.264,2.889a35.232,35.232,0,0,0,7.689,7.172,11.609,11.609,0,0,0,9.216,1.682c2.083-.5,4.159-1.03,6.233-1.564.591-.152,1.3-.307,1.459-.962.227-.925-.6-1.323-1.2-1.715a23.772,23.772,0,0,1-5.209-4.465,7.513,7.513,0,0,1-1.654-7.682,15.79,15.79,0,0,1,2.421-4.909,33.091,33.091,0,0,0,2.054-3.03c.434-.718-.085-1.508-.983-1.609C1461.409,214.316,1460.95,214.293,1460.526,214.259Zm-313.9,59.664c-.3,0-.611.015-.915,0-8.578-.47-14.312,4.233-19.144,10.548a1.97,1.97,0,0,0-.439,2.122c.517,1.026,1.524.854,2.415.781,2.275-.188,4.542-.572,6.818-.622,6.4-.14,12.748-1.028,19.152-1.242,3.63-.121,7.272-.66,10.933-.7.761-.008,1.522-.079,2.281-.145a5.372,5.372,0,0,0,.894-.183,1.551,1.551,0,0,0,1.294-1.119,1.473,1.473,0,0,0-.81-1.516C1162.316,277.222,1155.081,273.843,1146.629,273.923Zm202.787-135.841a1.973,1.973,0,0,0,.617,1.874c3.473,4.646,6.926,9.306,10.432,13.926q5.811,7.657,11.72,15.241a1.348,1.348,0,0,0,1.142.457,1.428,1.428,0,0,0,.683-1.028c.654-4.529,1.26-9.065,1.877-13.6.227-1.663.456-3.325.67-4.99a2.907,2.907,0,0,0-1.885-3.29q-.627-.279-1.273-.514-10.545-3.829-21.1-7.642A4.657,4.657,0,0,0,1349.416,138.082Zm-17.425,118.61v-.137h-5.034c-.305,0-.611,0-.915.012-3.6.169-4.29.975-3.868,4.493.018.152.052.3.073.452,1.158,8.455,2.3,16.912,3.488,25.363a14.7,14.7,0,0,0,.732,2.623.889.889,0,0,0,1.488.141,15.078,15.078,0,0,0,1.034-2.025q5.276-13.41,10.515-26.834a20.012,20.012,0,0,0,.736-2.162,1.439,1.439,0,0,0-1.393-1.9C1336.564,256.635,1334.277,256.692,1331.991,256.692ZM1141.226,298.7a2.972,2.972,0,0,0,2.076,1.662,50.264,50.264,0,0,1,16.56,9.53c3.72,3.343,8.06,3.207,12.461,1.479a25.371,25.371,0,0,0,6.951-4.376c1.567-1.314,1.535-2.253-.28-3.007-5.64-2.341-11.212-4.874-17.1-6.569a35.167,35.167,0,0,0-5.833-1.173C1151,295.687,1146.037,295.942,1141.226,298.7Zm374.458-114.859c-.219-.615-.46-1.5-.839-2.324a106.933,106.933,0,0,0-8.26-14.771,47.676,47.676,0,0,0-9.866-10.134,22.189,22.189,0,0,0-3.08-1.975c-.779-.444-1.75-1.075-2.515-.328-.911.887.1,1.622.612,2.314.723.982,1.5,1.925,2.226,2.905,3.3,4.45,4.028,9.46,3.188,14.8-.119.751-.392,1.476-.541,2.224-.383,1.936-.162,2.5,1.684,3.134,5.2,1.789,10.424,3.49,15.643,5.215a2.365,2.365,0,0,0,.9.108C1515.355,184.973,1515.63,184.644,1515.684,183.844Zm-405.119,135.5a19.837,19.837,0,0,0,.735,5.885c2.5,8.1,8.594,11.861,16.346,13.653a2.986,2.986,0,0,0,.456.03c1.111.077,1.823-.718,1.444-1.7a29.6,29.6,0,0,0-1.322-2.916q-6.184-12.014-12.4-24.012a14.871,14.871,0,0,0-.939-1.568,1.077,1.077,0,0,0-1.887.044A21.432,21.432,0,0,0,1110.565,319.339ZM1449.514,303a14.956,14.956,0,0,0-1.958-.8q-8.31-1.618-16.631-3.186a7.872,7.872,0,0,0-1.822-.1,2.179,2.179,0,0,0-2.236,2.371,30.424,30.424,0,0,0,.544,3.61c.57,3.151,1.111,6.309,1.767,9.443.321,1.534,1.114,1.941,2.241,1.2q6.69-4.4,13.3-8.923C1446.211,305.605,1447.6,304.452,1449.514,303ZM1124.3,266.216c-.1-.3-.106-.517-.195-.556a104.82,104.82,0,0,0-16.876-5.87,35.131,35.131,0,0,0-6.841-.584c-5.241-.26-8.083,4.281-9.062,8.192a1.323,1.323,0,0,0,1.149,1.679A16.294,16.294,0,0,0,1097.5,269c1.67-.2,3.332-.475,5.006-.616,4.874-.411,9.757-.723,14.628-1.17C1119.528,266.989,1121.9,266.556,1124.3,266.216Zm68.27,53.7a20.779,20.779,0,0,0-6.969,1.235,1.8,1.8,0,0,0-1,.825c-.213.445.19.825.57,1.087a5.9,5.9,0,0,0,.793.459q11.169,5.345,22.343,10.675a4.065,4.065,0,0,0,.867.294,1.489,1.489,0,0,0,1.668-.408,1.652,1.652,0,0,0,.2-1.726,5.2,5.2,0,0,0-.979-1.532,98.571,98.571,0,0,0-7.2-7.055A15.063,15.063,0,0,0,1192.572,319.912Zm116.139-87.1c-1.335-.045-1.952.033-2.226.687a1.653,1.653,0,0,0,.4,1.683q4.311,5.6,8.648,11.186a5.412,5.412,0,0,0,.633.652,1.555,1.555,0,0,0,2.392-.235c1.895-2.936,3.771-5.888,5.542-8.9.819-1.393.387-2.362-1.25-2.666C1317.917,234.305,1312.963,233.528,1308.711,232.814Zm103.231,30.407c.039.669.039,1.282.116,1.885.287,2.268,1.4,3.272,3.719,2.978a66.058,66.058,0,0,0,6.712-1.351,6.689,6.689,0,0,0,2.063-.952c1.708-1.115,2.238-3.071,1.512-5.273-.673-2.044-1.974-3.062-4.1-2.866-2.424.222-4.839.6-7.235,1.033a3.049,3.049,0,0,0-2.628,2.785C1412.018,262.062,1411.99,262.672,1411.942,263.221Z" fill="#fff"/>
    <path d="M202.349,557.069a11.823,11.823,0,0,0-2.772,4.776c-2.42,6.119-4.811,12.25-7.112,18.415q-6.1,16.342-12.08,32.73c-3.95,10.776-7.854,21.568-11.795,32.347q-4.965,13.581-9.969,27.148c-.105.288-.217.573-.344.851-2.448,5.372-8.06,6.512-12.372,2.4a18.249,18.249,0,0,1-5.071-8.6q-1.185-4.435-2.217-8.911-4.521-19.686-8.994-39.385-4.777-21.042-9.52-42.092-2.991-13.209-6-26.412-1.641-7.161-3.363-14.3a27.18,27.18,0,0,0-3.144-7.608A12.948,12.948,0,0,0,99.8,522.4c-1.175-.342-2.365-.636-3.533-1a5.231,5.231,0,0,1-2.894-2.145c-.68-1.035-1.387-2.172-.929-3.413.528-1.429,1.971-1.243,3.166-1.268,2.448-.052,4.9-.03,7.348-.03q20.436,0,40.874.008a42.137,42.137,0,0,1,4.579.207,2.467,2.467,0,0,1,2.285,1.955,2.248,2.248,0,0,1-1.057,2.362,12.307,12.307,0,0,1-6.6,2.963,17.09,17.09,0,0,0-3.581.747,6.087,6.087,0,0,0-4.392,5.353,16.623,16.623,0,0,0,.327,5.927c4.857,22.748,9.621,45.516,14.588,68.24,1.9,8.669,4.245,17.239,6.4,25.851a14.341,14.341,0,0,0,.725,2.172.886.886,0,0,0,.714.408,1.069,1.069,0,0,0,.71-.475c.486-.776.915-1.588,1.354-2.393a151.959,151.959,0,0,0,8.05-18.512q5.51-14.358,10.988-28.729,9.17-24.018,18.336-48.036c1.422-3.716,2.911-7.407,4.4-11.1a23.658,23.658,0,0,1,5.244-8.014c1.3-1.292,2.122-1.329,3.507,0a20.782,20.782,0,0,1,5.288,7.961q6.384,17.706,12.744,35.422,5.825,16.2,11.643,32.4,2.79,7.779,5.545,15.569c2.591,7.363,5.148,14.737,7.732,22.1a16.846,16.846,0,0,0,3.2,6.04c1.1,1.2,2.224,1.061,2.814-.423a27.542,27.542,0,0,0,1-3.053q5.637-21.066,11.256-42.137,7.567-28.154,15.191-56.292c.16-.591.316-1.184.445-1.782.669-3.092.44-3.617-2.721-4.681-3.769-1.27-7.6-2.367-11.393-3.56-1.168-.366-2.326-.77-3.466-1.214-1.013-.394-2.009-.9-2.178-2.129a3.909,3.909,0,0,1,2.351-3.617,10.573,10.573,0,0,1,4.079-.457q9.185-.021,18.37-.012c4.746,0,9.492.066,14.237.022a11.266,11.266,0,0,1,7.546,2.876,1.659,1.659,0,0,1,.207,2.753c-2.667,2.743-5.329,5.5-8.125,8.108a17.23,17.23,0,0,0-4.775,8.2c-4,13.975-8.133,27.914-12.156,41.883q-7.814,27.132-15.535,54.291c-2.1,7.357-4.22,14.71-6.264,22.084-.9,3.241-1.8,6.5-2.4,9.8a24.465,24.465,0,0,1-5.967,11.713c-2.081,2.426-3.6,2.7-6.48,1.5a15.639,15.639,0,0,1-9.2-9.654c-2.7-7.648-5.533-15.248-8.248-22.89-5.275-14.853-10.63-29.679-15.72-44.6-4.452-13.048-9.669-25.791-14.781-38.58C204.1,559.747,203.774,558.217,202.349,557.069Z" fill="#fff"/>
    <path d="M1429.165,944.5c3.98,0,7.961-.01,11.942,0,4.282.013,8.566-.14,12.825.6a27.533,27.533,0,0,0,4.584.15q19.06.082,38.122.143a46.925,46.925,0,0,1,7.778.515,33.333,33.333,0,0,0,4.576.285c7.794.236,15.612-.3,23.381.845a44.055,44.055,0,0,0,5.506.127c4.892.1,9.8-.187,14.651.765a2.2,2.2,0,0,0,.458.036c8.121-.21,16.187.864,24.291,1.046a60.6,60.6,0,0,1,10.524.678,18.958,18.958,0,0,0,3.2.2c4.739.118,9.475.509,14.195.687,7.645.287,15.253,1.182,22.9,1.216a40.669,40.669,0,0,1,7.773.583,16.825,16.825,0,0,0,2.741.243c5.349.167,10.695.517,16.031.756,7.031.314,14.039.965,21.071,1.232a99.984,99.984,0,0,1,10.036,1.047q12.272,1.716,24.521,3.593c7.412,1.133,14.806,2.382,22.215,3.533a23.708,23.708,0,0,1,6.565,1.992,14.639,14.639,0,0,1,2,1.126,2.7,2.7,0,0,1,1.289,2.745,2.614,2.614,0,0,1-2.5,2.293,48.227,48.227,0,0,1-10.539.006c-7.6-.813-15.2-1.641-22.795-2.536-8.96-1.057-17.909-2.219-26.869-3.279-4.252-.5-8.518-.882-12.778-1.3-3.347-.331-6.7-.634-10.045-.96q-7.758-.754-15.516-1.522c-.761-.075-1.524-.159-2.288-.181-12.843-.369-25.668-1.313-38.533-1.051-5.041.1-10.1.24-15.117-.648a24.633,24.633,0,0,0-4.126-.133c-7.655-.045-15.31-.062-22.965-.117-4.74-.034-9.487.164-14.2-.656a27.639,27.639,0,0,0-4.584-.144q-16.765-.078-33.529-.133a52.359,52.359,0,0,1-7.322-.469,43.1,43.1,0,0,0-5.952-.308q-20.9-.1-41.8-.144a54.759,54.759,0,0,1-7.323-.453,47.909,47.909,0,0,0-6.411-.317q-39.959-.1-79.918-.153a53.328,53.328,0,0,1-8.7-.515,31.071,31.071,0,0,0-5.038-.236q-29.854-.022-59.709-.012a49.94,49.94,0,0,0-6.864.446,45.249,45.249,0,0,1-5.952.3q-20.668.1-41.337.143a45.493,45.493,0,0,0-6.863.468,36.384,36.384,0,0,1-5.032.316c-4.133.061-8.267.044-12.4.087a129.234,129.234,0,0,0-13.285.637c-4.087.465-8.255.222-12.387.277a64.817,64.817,0,0,0-10.07.625,38.5,38.5,0,0,1-5.5.239c-5.5.131-11-.041-16.5.741a75.153,75.153,0,0,1-9.633.227,49.36,49.36,0,0,0-9.605.655,5.9,5.9,0,0,1-1.369.133c-8.123-.256-16.186.9-24.292,1.029a66.855,66.855,0,0,0-11.444.7,24.988,24.988,0,0,1-4.122.194c-4.588.084-9.181-.051-13.738.758a29.716,29.716,0,0,1-4.583.168c-4.588.085-9.183-.076-13.738.753a25.716,25.716,0,0,1-4.125.164c-4.435.077-8.878-.072-13.278.749a22.1,22.1,0,0,1-3.665.162c-4.283.072-8.578-.077-12.815.777a5.733,5.733,0,0,1-1.372.1c-6.6-.285-13.11.953-19.693,1.13-6.1.164-12.18,1.026-18.274,1.51-5.334.424-10.678.713-16.013,1.131-6.1.478-12.188.983-18.273,1.573-3.805.37-7.623.372-11.435.876-5.295.7-10.667.808-16,1.222-6.1.474-12.186,1.006-18.278,1.517-.457.038-.909.14-1.367.166-6.411.368-12.826.674-19.232,1.1-6.71.45-13.411,1.015-20.116,1.533a12.552,12.552,0,0,1-1.369.14c-7.208-.237-14.34.935-21.531,1.142-7.173.207-14.33.985-21.493,1.515-.305.023-.609.076-.914.092-8.859.445-17.716.907-26.576,1.318a3.22,3.22,0,0,1-2.975-4.718,2.639,2.639,0,0,1,1.366-1.115,18.072,18.072,0,0,1,3.561-.838c5.771-.683,11.55-1.287,17.323-1.944,7.445-.847,14.883-1.757,22.332-2.562,4.408-.476,8.833-.787,13.248-1.2,5.327-.5,10.648-1.057,15.977-1.525,5.025-.443,10.06-.78,15.087-1.2,5.483-.462,10.962-.975,16.444-1.46q7.08-.625,14.163-1.241c6.395-.562,12.787-1.158,19.185-1.68,5.181-.423,10.372-.72,15.552-1.141,5.485-.446,10.963-.971,16.443-1.468.761-.069,1.518-.221,2.281-.249,7.492-.28,14.941-1.053,22.4-1.777,5.476-.532,10.986-.7,16.473-1.122,5.79-.451,11.571-1.02,17.356-1.538a14.677,14.677,0,0,1,1.828-.159c6.141.233,12.231-.676,18.3-1.224,6.4-.578,12.858-.266,19.207-1.438a22.676,22.676,0,0,1,3.666-.162,61.651,61.651,0,0,0,10.525-.7,24.545,24.545,0,0,1,4.121-.212,123.433,123.433,0,0,0,12.823-.7,102.677,102.677,0,0,1,11.01-.28,52.492,52.492,0,0,0,8.236-.563,29.3,29.3,0,0,1,4.576-.274c4.592-.06,9.185-.075,13.778-.107a58.742,58.742,0,0,0,9.613-.589,31.051,31.051,0,0,1,5.038-.217c8.267-.049,16.535-.047,24.8-.113,5.045-.041,10.1.193,15.119-.681a27.658,27.658,0,0,1,4.585-.127c10.411-.051,20.822-.068,31.232-.154,2.136-.018,4.268-.288,6.4-.424,1.983-.127,3.967-.314,5.951-.328q16.076-.111,32.151-.143a52.521,52.521,0,0,0,7.322-.478,43.717,43.717,0,0,1,5.952-.3q19.52-.1,39.04-.144a55.252,55.252,0,0,0,7.322-.466,48.76,48.76,0,0,1,6.411-.307q36.973-.1,73.948-.163a52.976,52.976,0,0,0,8.238-.508,33.141,33.141,0,0,1,5.037-.243C1417.529,944.485,1423.347,944.5,1429.165,944.5Z" fill="#fff"/>
    <path d="M1407.34,599.5q0,24.792-.009,49.584a24.779,24.779,0,0,0,1.281,8.566c1.573,4.375,4.709,6.641,9.16,7.281,1.358.2,2.746.191,4.12.27a9.54,9.54,0,0,1,6.151,2.748,1.389,1.389,0,0,1-.271,2.307,20.34,20.34,0,0,1-3.883,1.333,77.564,77.564,0,0,1-14.97,2.1c-3.809.039-7.581.863-11.431.768a207.361,207.361,0,0,1-24.659-2.087,51.849,51.849,0,0,1-7.093-1.857,7.1,7.1,0,0,1-3.132-1.849,1.366,1.366,0,0,1,.323-2.279,22.464,22.464,0,0,1,2.612-.845c1.923-.512,3.859-.973,5.784-1.475a25.944,25.944,0,0,0,5.983-2.3,9.571,9.571,0,0,0,5.065-6.722,46.167,46.167,0,0,0,.959-9.566q-.033-38.565-.011-77.131c0-8.723-.076-17.446-.017-26.169a64.769,64.769,0,0,0-.977-10.033,7.669,7.669,0,0,0-4.421-6.026,46.373,46.373,0,0,0-9.079-3.187c-2.957-.783-5.934-1.5-8.875-2.337-1.314-.375-1.554-1.432-.741-2.482a8.742,8.742,0,0,1,7.468-3.67c20.05.126,40.1.115,60.15.149,8.679,1.146,17.42.583,26.123.978a64.875,64.875,0,0,1,13.616,1.845,28.265,28.265,0,0,1,17.039,12.386c5.559,8.574,7.927,17.908,5.861,28.018-2.311,11.31-8.814,19.68-18.877,25.245a108.584,108.584,0,0,1-16.326,7.307c-2.45.867-4.869,1.834-7.259,2.858-1.422.609-1.667,1.64-.689,2.951,2.835,3.8,5.735,7.552,8.615,11.319q19.092,24.975,38.182,49.951a25.6,25.6,0,0,0,6.386,5.867c2.424,1.6,4.784,3.3,7.084,5.074,1.316,1.014,1.167,2.084-.225,2.868a26.426,26.426,0,0,1-7.347,2.548,31.739,31.739,0,0,1-12.761.157c-7.087-1.307-12.634-5.077-17.241-10.52-4.268-5.043-7.549-10.768-11.453-16.062-7.717-10.467-15.458-20.914-23.452-31.172q-9.45-12.126-18.771-24.352c-.722-.942-1.89-1.942-1.382-3.22.6-1.512,2.252-1.379,3.594-1.43,2.752-.1,5.509-.07,8.263-.13a67.552,67.552,0,0,0,13.171-1.721,33.484,33.484,0,0,0,19.386-12.311,27.5,27.5,0,0,0,5.768-15.238c.138-1.827.051-3.671.076-5.508.15-11.429-6.134-19.531-16.367-23.645-6.72-2.7-13.645-4.546-21.019-3.994-2.133.16-4.287,0-6.425.108-5.538.28-9.049,3.248-10.867,8.379a30.538,30.538,0,0,0-1.333,6.26c-1.05,7.923-.809,15.879-.831,23.828-.033,12.09-.008,24.18-.008,36.27Z" fill="#fff"/>
    <path d="M1178.589,580.687q0,32.818-.014,65.636a39.259,39.259,0,0,0,.946,9.562,11.488,11.488,0,0,0,9.294,9.033c1.189.265,2.446.232,3.631.509a4.44,4.44,0,0,1,3.3,4.856,2.1,2.1,0,0,1-1.619,2,15.309,15.309,0,0,1-3.174.335q-14.69.036-29.379.013c-.459,0-.92,0-1.377-.034-2.756-.212-3.509-.906-3.734-3.6-.113-1.37-.041-2.755-.128-4.128a31.424,31.424,0,0,0-.431-4.094c-.363-1.835-1.419-2.287-2.977-1.357a26.365,26.365,0,0,0-5.424,4.21c-2.242,2.3-4.545,4.546-6.749,6.882-5.355,5.675-12.155,8.154-19.711,8.532-14.52.727-26.575-4.693-36.357-15.314a32.393,32.393,0,0,1-5.335-7.989,88.078,88.078,0,0,1-6.3-17.207c-2.345-9.64-2.926-19.271-.382-29.038a49.7,49.7,0,0,1,10.856-20.483,78.132,78.132,0,0,1,17.246-15.017c8.022-5.022,16.574-8.572,26.026-9.636a46.985,46.985,0,0,1,21.668,2.67,24.7,24.7,0,0,0,5.7,1.7,1.717,1.717,0,0,0,2.143-1.763c.091-.911.1-1.833.1-2.75q0-13.082-.025-26.163a27.45,27.45,0,0,0-.612-5.918,8.567,8.567,0,0,0-6.176-6.748c-2.187-.685-4.448-1.128-6.653-1.76a14.76,14.76,0,0,1-3.4-1.3,2.237,2.237,0,0,1,.2-4.047,26.534,26.534,0,0,1,3.881-1.395q14.314-4.188,28.645-8.322c5.874-1.692,6.358-1.346,6.362,4.657q.024,33.736.007,67.473Zm-21.335,32.946c.428-4.519-.433-9.208-1.227-13.865-1.1-6.461-3.606-12.256-8.7-16.754a27.76,27.76,0,0,0-8.232-4.89c-9.782-3.906-19.526-4.6-29.192.594a21.283,21.283,0,0,0-9.744,10.544,73.548,73.548,0,0,0-4.079,13.6c-1.959,8.713-2.69,17.446-.98,26.362a62.988,62.988,0,0,0,7.6,20.037,26.717,26.717,0,0,0,5.85,7.014c3.922,3.312,8.243,5.876,13.535,6.119a60.288,60.288,0,0,0,9.165-.034c8.877-.954,15.984-4.813,20.285-13.023a36.424,36.424,0,0,0,3.862-12.171c.528-3.935.98-7.869,1.138-11.853C1156.69,621.505,1157.578,617.737,1157.254,613.633Z" fill="#fff"/>
    <path d="M724.636,597.263c0-17.142-.048-34.283.033-51.425a101.474,101.474,0,0,0-1.178-13.239,9.78,9.78,0,0,0-10.053-8.789,26.43,26.43,0,0,1-4.578-.171,8.075,8.075,0,0,1-2.563-.92,2.017,2.017,0,0,1-.824-2.767,4.5,4.5,0,0,1,2.431-2.618,21.019,21.019,0,0,1,2.615-.855q14.442-3.752,28.893-7.471a26.313,26.313,0,0,1,3.141-.668c1.855-.242,2.882.556,3.089,2.5a44.043,44.043,0,0,1,.14,4.584q.012,29.845.016,59.689a36.628,36.628,0,0,0,.27,4.565,1.094,1.094,0,0,0,1.4.84,5.582,5.582,0,0,0,1.69-.677,57.446,57.446,0,0,0,8.617-6.069,36.288,36.288,0,0,1,16.872-8.844,31.23,31.23,0,0,1,12.3-.348,61.707,61.707,0,0,1,13.665,3.849c9.744,4.1,15.655,11.454,18.395,21.479a51.9,51.9,0,0,1,1.345,9.06c1.541,17.111.513,34.255.828,51.38a35.48,35.48,0,0,0,.587,7.3,8.918,8.918,0,0,0,6.974,7.109c.887.232,1.8.354,2.7.566a5.915,5.915,0,0,1,3.075,1.9,2.27,2.27,0,0,1,.108,3.286,7.927,7.927,0,0,1-4.634,2.777,15.316,15.316,0,0,1-2.739.24q-11.709.039-23.419.029a13.838,13.838,0,0,1-2.284-.166c-1.6-.273-2.323-1.036-2.48-2.815-.135-1.52-.115-3.057-.116-4.586q-.011-28.467,0-56.934a63.821,63.821,0,0,0-.766-9.59c-1.163-7.74-5.324-13.1-12.259-16.608-6.918-3.5-14.1-3.877-21.446-2.136-7,1.658-11.844,6.173-15.1,12.432a14.354,14.354,0,0,0-1.494,4.789,122.031,122.031,0,0,0-1.046,12.33c-.155,7.956-.284,15.927.048,23.872.287,6.87.922,13.728.87,20.615a7.054,7.054,0,0,0,2.421,5.245c2.094,2.066,4.643,3.487,7.024,5.146a14.84,14.84,0,0,0,1.952,1.206c4.062,1.98,2.832,4.017-.1,5.884a10.286,10.286,0,0,1-2.984,1.1,9.309,9.309,0,0,1-2.281.18q-21.123.023-42.246.019a11.538,11.538,0,0,1-2.284-.18c-2.629-.541-3.459-3.237-1.632-5.271a8.016,8.016,0,0,1,5.13-2.783c1.063-.123,2.139-.126,3.205-.228a8.4,8.4,0,0,0,7.079-5.133,16.138,16.138,0,0,0,1.52-7.124c0-4.744.039-9.489.041-14.233q.009-20.661,0-41.323Z" fill="#fff"/>
    <path d="M413.161,635.444V603.31a24.293,24.293,0,0,0-4.531-14.192,15.115,15.115,0,0,0-3.879-3.861,30.687,30.687,0,0,0-16.732-5.517,27.886,27.886,0,0,0-17.261,5.1,18.712,18.712,0,0,0-7.124,9.312,27.16,27.16,0,0,0-1.8,9.42c.02,13.313-.049,26.626.078,39.937.041,4.27.594,8.533.894,12.8a5.048,5.048,0,0,0,2.517,4.134c2.074,1.3,4.172,2.564,6.208,3.922a44.984,44.984,0,0,1,4.038,3.021c1.449,1.225,1.466,2.159.3,3.494a6.727,6.727,0,0,1-5.154,2.6c-.919.01-1.836.047-2.754.047q-19.973.009-39.943,0a24.709,24.709,0,0,1-3.664-.16c-2.8-.422-3.848-3.236-2.1-5.528a6.336,6.336,0,0,1,4.258-2.468c1.056-.154,2.136-.146,3.2-.253,5.433-.546,7.915-2.785,8.905-8.218a55.221,55.221,0,0,0,.977-10.029q-.05-35.118.026-70.236c.006-8.722-.124-17.447.045-26.166.108-5.536-.713-10.98-1.064-16.469a16.918,16.918,0,0,0-.432-2.249c-.756-3.724-3.151-5.843-6.722-6.717-1.93-.473-3.9-.8-5.85-1.172-1.211-.23-2.563-.347-3.024-1.706-.555-1.637.248-2.967,1.359-4.127a8.192,8.192,0,0,1,4.008-2.118c2.664-.7,5.318-1.468,8.019-1.987a108.437,108.437,0,0,0,13.278-3.607c2.615-.858,5.269-1.608,7.935-2.3,1.706-.44,2.6.268,2.737,2.086.112,1.523.089,3.058.09,4.588q.007,30.068.01,60.136c0,1.527.027,3.061.166,4.58.116,1.259,1.171,1.742,2.366,1.168a12.573,12.573,0,0,0,1.591-.91,122.433,122.433,0,0,0,10.4-7.515,32.849,32.849,0,0,1,27.4-7.579,58.664,58.664,0,0,1,15.284,4.787c8.485,3.919,13.654,10.647,16.146,19.484a49.342,49.342,0,0,1,1.937,13.13q.03,5.51.076,11.017a70.531,70.531,0,0,0,.62,11.9,26.76,26.76,0,0,1,.159,4.581c.015,7.8,0,15.608.025,23.412a24.408,24.408,0,0,0,.28,4.57c.657,3.37,2.373,5.947,5.92,6.892,1.035.275,2.084.511,3.094.857a15.258,15.258,0,0,1,2.945,1.234c2.274,1.364,2.409,3.049.5,4.783A8.074,8.074,0,0,1,444,673.438c-1.067.079-2.14.109-3.21.112q-10.79.023-21.578.019c-.918,0-1.841.01-2.752-.081-2.182-.216-2.965-.967-3.166-3.16-.125-1.367-.095-2.751-.1-4.127q-.01-15.38,0-30.757Z" fill="#fff"/>
    <path d="M1045.294,621.146q0,7.343,0,14.686a71.305,71.305,0,0,1-.57,10.522,31.186,31.186,0,0,0,.747,11.841,8.224,8.224,0,0,0,5.909,6.4q1.1.337,2.209.62c2.683.677,3.914,2.757,4.875,5.072a1.538,1.538,0,0,1-1.244,2.056,15.322,15.322,0,0,1-2.726.271q-13.082.03-26.163.011c-.459,0-.92,0-1.377-.032-2.8-.213-3.472-.816-3.795-3.549-.341-2.883-.605-5.776-.95-8.659-.164-1.372-1.228-1.893-2.292-1.036-4.163,3.355-8.553,6.435-12.412,10.163a44.788,44.788,0,0,1-3.7,3.424c-7.521,5.783-15.872,7.578-25.1,5.1a37.8,37.8,0,0,1-8.069-3.248c-8.763-4.7-12.891-12.317-13.561-21.964A45.771,45.771,0,0,1,958,639.594a31.381,31.381,0,0,1,7.347-14.08,21.516,21.516,0,0,1,6.8-4.612,73.228,73.228,0,0,1,15.589-5.371c9.658-2.357,19.354-4.559,29.038-6.81,4.417-1.027,5.653-.381,5.518-7.026a31.685,31.685,0,0,0-2.17-10.274,13.54,13.54,0,0,0-2.45-3.847c-4.932-6.021-11.63-8.836-18.988-10.238a15.946,15.946,0,0,0-12.653,2.744,34.743,34.743,0,0,0-8.054,7.419c-1.642,2.2-3.462,4.276-5.273,6.347-1.255,1.435-2.677,1.355-3.839-.2a16.055,16.055,0,0,1-3.278-7.978,8.781,8.781,0,0,1,3.613-8.037c8.857-6.836,18.637-11.8,29.858-13.242a47.774,47.774,0,0,1,26.888,4.061,31.208,31.208,0,0,1,16.425,17.718,45.439,45.439,0,0,1,2.95,15.7c.054,6.425.013,12.85.013,19.276Zm-22.086,8.951h-.152c0-2.448.036-4.9-.014-7.346a11.42,11.42,0,0,0-.947-4.464,2.134,2.134,0,0,0-2.182-1.369,16.247,16.247,0,0,0-2.713.446c-7.144,1.716-14.3,3.4-21.414,5.22a36.813,36.813,0,0,0-5.114,2.022c-4.5,1.907-7.282,5.487-9.239,9.773a23.157,23.157,0,0,0-1.728,5.222c-1.02,5.377-.9,10.683,1.832,15.631,2.469,4.468,6.063,7.23,11.392,7.223,1.378,0,2.756-.007,4.134.012,6.138.082,11.418-2.424,15.986-6.112a26.444,26.444,0,0,0,10.161-21.665C1023.2,633.159,1023.208,631.628,1023.208,630.1Z" fill="#fff"/>
    <path d="M1629.708,619.566a68.273,68.273,0,0,1-.7,10.966,54.371,54.371,0,0,1-8.5,21.145,55.938,55.938,0,0,1-24.157,20.482,69.43,69.43,0,0,1-20.264,5.665c-11.07,1.387-21.746-.035-31.406-5.973a54.419,54.419,0,0,1-12.582-10.56,57.919,57.919,0,0,1-14.168-30.331c-2.411-16.609.571-32.073,11.175-45.461,8.7-10.984,20.209-17.554,33.94-20.268a57.582,57.582,0,0,1,31.19,2.321c7.111,2.56,13.727,6.022,18.925,11.736,1.647,1.81,3.56,3.4,5.075,5.3a51.482,51.482,0,0,1,11.465,30.385C1629.767,616.5,1629.708,618.036,1629.708,619.566Zm-89.183-.7c.056,1.242.038,3.392.269,5.516a74.549,74.549,0,0,0,9.434,29.028,37.136,37.136,0,0,0,10.912,12.233c8.779,6.165,22.929,5.787,31.673-1.825a31.409,31.409,0,0,0,9.157-13.493c2.677-7.557,3.557-15.485,5.142-23.268a7.237,7.237,0,0,0,.05-2.281c-.534-4.4-.968-8.815-1.713-13.179a68.563,68.563,0,0,0-5.7-17.867c-2.953-6.229-7.715-10.962-12.746-15.467a17.535,17.535,0,0,0-2.677-1.758,28.524,28.524,0,0,0-17.605-3.994c-9.64.809-16.971,5.111-20.4,14.5A91.479,91.479,0,0,0,1540.525,618.869Z" fill="#fff"/>
    <path d="M648.453,621.144c-4.746,0-9.492-.009-14.238,0a33.745,33.745,0,0,0-3.67.121c-4.056.453-6.1,2.712-5.8,6.761a41.727,41.727,0,0,0,2.143,10.318,42.491,42.491,0,0,0,10.94,17.8,33.235,33.235,0,0,0,21.048,9.032c7.982.633,15.489-1.356,22.816-4.265,2.988-1.186,5.968-2.392,8.956-3.577a14.542,14.542,0,0,1,1.735-.582,1.234,1.234,0,0,1,1.547,1.59,22.351,22.351,0,0,1-4.286,7.52,30.771,30.771,0,0,1-15.409,9.491,83.572,83.572,0,0,1-20.325,3.483c-14.088.379-26.893-3.382-37.31-13.579-8.681-8.5-13.363-18.879-15.088-30.728a76.47,76.47,0,0,1-.963-9.58,91.688,91.688,0,0,1,1.891-19.145,47.523,47.523,0,0,1,14.642-26.443c5.141-4.786,11.277-7.878,17.679-10.46a73.168,73.168,0,0,1,14.558-4.124c11.158-1.988,21.338.682,30.608,6.769a43.156,43.156,0,0,1,17.222,22.048,56.94,56.94,0,0,1,2.663,13.471,17.667,17.667,0,0,1-.752,6.353,8.52,8.52,0,0,1-5.724,6.081,15.893,15.893,0,0,1-5.424.806c-3.369.012-6.737.035-10.105.052-3.672.018-7.322.226-10.99.549-4.712.416-9.481.192-14.226.237C651.209,621.155,649.831,621.144,648.453,621.144Zm4.894-9.237v.034q8.247,0,16.5,0c1.527,0,3.059.036,4.581-.063,2.414-.158,3-.812,2.731-3.154-.46-4.094-.854-8.2-1.55-12.262a33.935,33.935,0,0,0-3.831-11.7c-3.61-6.117-9.17-9.755-15.843-11.646a23.678,23.678,0,0,0-12.25-.042c-6.772,1.695-11.049,6.3-13.524,12.6-1.842,4.686-3.346,9.5-5,14.264a14.4,14.4,0,0,0-.545,5.886,5.161,5.161,0,0,0,2.54,4.119,13.044,13.044,0,0,0,7.41,1.973C640.821,611.886,647.084,611.907,653.347,611.907Z" fill="#fff"/>
    <path d="M891.079,621.159c-5.356,0-10.713-.074-16.068.02-5.55.1-7.12,1.793-6.956,7.244a17.086,17.086,0,0,0,.338,3.188c1.712,7.693,4.294,15.038,9.415,21.186,6.263,7.518,14.192,11.866,24.127,12.407,8.62.469,16.7-1.5,24.516-4.9,1.964-.854,3.936-1.69,5.929-2.473a7.242,7.242,0,0,1,2.209-.516,2.237,2.237,0,0,1,2.214,3.124c-1.846,3.327-3.71,6.546-7.24,8.642a70.819,70.819,0,0,1-28.885,9.819,51.925,51.925,0,0,1-22.6-2.8,60.19,60.19,0,0,1-14.271-7.26c-7.919-5.379-12.879-12.953-16.143-21.744A60.484,60.484,0,0,1,844,626.879c-.137-8.294.326-16.49,2.441-24.566a47.817,47.817,0,0,1,11.908-21.421,44.2,44.2,0,0,1,10.169-7.79,71.644,71.644,0,0,1,25.5-8.659,41.147,41.147,0,0,1,24.881,4.669A43.874,43.874,0,0,1,938.8,589.964a42.363,42.363,0,0,1,3.55,22.386,8.36,8.36,0,0,1-7.714,7.811,30.257,30.257,0,0,1-3.666.154q-6.2.045-12.4.044a52.184,52.184,0,0,0-8.693.534,28.689,28.689,0,0,1-4.576.235c-4.743.026-9.487.009-14.231.009Zm6.125-8.492v.029a15.206,15.206,0,0,0,2.29-.016c5.463-.841,10.965-.729,16.463-.751a10.811,10.811,0,0,0,1.823-.155,2.467,2.467,0,0,0,2.293-2.45,17.354,17.354,0,0,0,.07-3.658,84.163,84.163,0,0,0-1.717-11.311,35.051,35.051,0,0,0-5.364-11.579c-5.658-8.112-15.421-11.75-25.449-9.813a18.643,18.643,0,0,0-12.138,7.592c-4.916,6.944-7.055,14.858-7.959,23.149-.379,3.481,1.729,6.2,5.068,7.267a20.721,20.721,0,0,0,5.868.917c5.34.12,10.7-.153,16.006.758A16.544,16.544,0,0,0,897.2,612.667Z" fill="#fff"/>
    <path d="M1259.468,856.042a46.591,46.591,0,0,0,.028,4.858,17.537,17.537,0,0,0,5.967,12.032c3.2,2.791,6.8,3.946,11.049,2.737a22.65,22.65,0,0,0,7.45-3.47,78.836,78.836,0,0,0,7.377-6.187c4.1-3.911,8.138-7.888,12.006-12.021,4.386-4.686,8.552-9.576,12.823-14.369.815-.914,1.643-1.818,2.516-2.675a34.232,34.232,0,0,0,5.011-5.961,12.089,12.089,0,0,1,1.711-2.143,2.16,2.16,0,0,1,3.6,1.125,8.618,8.618,0,0,1-.353,4.52,37.262,37.262,0,0,1-3.572,7.94,113.692,113.692,0,0,1-24.033,30.507,92.062,92.062,0,0,1-19.344,13.083,29.446,29.446,0,0,1-15.948,3.448,16.662,16.662,0,0,1-6.635-1.668c-9.185-4.867-15.157-12.2-17-22.6a18.909,18.909,0,0,1,.158-6.847,174.962,174.962,0,0,1,5.283-19.485A211.918,211.918,0,0,1,1263.48,800.3a209.693,209.693,0,0,1,22.674-33.9,176.852,176.852,0,0,1,16.223-16.852,148.093,148.093,0,0,1,23.178-17.23,29.133,29.133,0,0,1,9.941-3.407,10.361,10.361,0,0,1,4.095.224c11.288,2.3,17.13,11.071,14.873,22.372a40.5,40.5,0,0,1-2.823,9.2,139.564,139.564,0,0,1-6.444,12.681,141.652,141.652,0,0,1-11.321,16.152c-3.445,4.281-7.655,6.977-13.224,7.315-2.991.181-4.6-.911-5.561-3.7a4.221,4.221,0,0,1,.2-3.556,11.594,11.594,0,0,1,1.852-2.6c6.01-5.97,10.575-13.081,15.6-19.818,3.288-4.411,6.107-9.17,9.2-13.733,2.137-3.157,1.943-6.314.266-9.545a3.929,3.929,0,0,0-3.22-2.286c-2.951-.293-5.8-.146-8.317,1.749a168.147,168.147,0,0,0-16.621,13.722,54.223,54.223,0,0,1-6.783,6.174,5.385,5.385,0,0,0-1.031.909c-6.658,7.775-13.97,14.972-19.824,23.46a182.369,182.369,0,0,0-14.52,24.437,171.753,171.753,0,0,0-11.305,31.5A36.623,36.623,0,0,0,1259.468,856.042Z" fill="#fff"/>
    <path d="M508.733,867.045a26.051,26.051,0,0,1,1.672-6.678c3.276-9.062,6.414-18.182,10.424-26.956,4.258-9.316,8.5-18.631,13.421-27.643,5.138-9.4,10.294-18.778,15.963-27.863,4.7-7.525,9.576-14.937,14.381-22.395.828-1.286,1.694-2.548,2.533-3.827a9.145,9.145,0,0,0,1.271-8.262c-1.4-4.453.782-8.482,5.245-10.209a18.638,18.638,0,0,1,4.01-.916c8.018-1.177,16.032-2.4,24.069-3.434,8.792-1.136,17.608-2.086,26.412-3.132,1.518-.181,3.023-.467,4.541-.648a9.725,9.725,0,0,1,10.283,5.3,2,2,0,0,1-.356,2.531c-2.3,2.3-4.8,4.387-8.146,4.808-6.065.763-12.151,1.349-18.23,1.991-6.687.706-13.386,1.317-20.061,2.12a12.117,12.117,0,0,0-7.282,3.59,34.1,34.1,0,0,0-4.437,5.243q-10.064,15.352-20.156,30.689c-.725,1.109-1.932,2.241-1.116,3.724.9,1.642,2.616,1.347,4.114,1.211,3.044-.276,6.107-.5,9.109-1.037,4.868-.876,9.759-.628,14.649-.654a23.038,23.038,0,0,1,7.191,1.343,17.082,17.082,0,0,1,2.924,1.311,4.667,4.667,0,0,1,2.762,4.419,5.259,5.259,0,0,1-3.211,4.671,10.874,10.874,0,0,1-4.884,1.13,90.677,90.677,0,0,0-12.792,1.024c-5,.659-10.039,1.087-15,1.94a40.215,40.215,0,0,0-14.109,5.2,27.7,27.7,0,0,0-11.6,14.378c-4.527,11.885-9.856,23.391-15.321,34.85a13.335,13.335,0,0,0-.935,2.568.768.768,0,0,0,.8.895,25.163,25.163,0,0,0,3.155-.479q13.708-2.832,27.41-5.7a70.264,70.264,0,0,1,16.876-1.379c3.957.132,6.572,2.106,8.459,5.383a2.751,2.751,0,0,1,.042,3.013,8.65,8.65,0,0,1-7.456,4.565,169.8,169.8,0,0,0-20.445,2.74,112.211,112.211,0,0,0-29.031,9.824,16.386,16.386,0,0,1-6.946,2.127C512.093,878.553,508.632,875.205,508.733,867.045Z" fill="#fff"/>
    <path d="M1724.184,924.461c-.263-4.075,1.358-7.552,3.747-10.606a138.4,138.4,0,0,1,19.841-20.326c3.154-2.667,6.032-5.624,9.242-8.247q7.122-5.818,14.658-11.04c2.39-1.652,4.719-3.394,7.045-5.137.476-.357.881-.938.4-1.546-.315-.4-.837-.246-1.247-.034-.544.28-1.064.605-1.594.91a30.779,30.779,0,0,1-10,3.257,7.37,7.37,0,0,1-8.185-3.723,15.081,15.081,0,0,1-2.011-11.817,88.154,88.154,0,0,1,19.787-38.883,51.222,51.222,0,0,1,24.565-16.247,11.931,11.931,0,0,1,6.335-.483c3.641.9,6.363,2.857,7.549,6.629a16.057,16.057,0,0,1,.5,7.689c-1.158,6.836-3.429,13.329-5.807,19.8a78.4,78.4,0,0,1-8.261,16.857,13.392,13.392,0,0,0-1.266,2.921.906.906,0,0,0,.349.768,1.133,1.133,0,0,0,.847.051,2.115,2.115,0,0,0,.765-.482,15.741,15.741,0,0,0,1.323-1.272c3.874-4.329,7.726-8.678,11.607-13,2.862-3.186,5.756-6.342,8.642-9.506a3.876,3.876,0,0,1,.7-.595,2.575,2.575,0,0,1,2.607-.279,2.335,2.335,0,0,1,1.344,2.654,26.022,26.022,0,0,1-3.688,10.3,38.706,38.706,0,0,1-4.563,5.74c-8.343,8.321-15.98,17.313-24.449,25.519a129.581,129.581,0,0,0-16.45,19.7c-4.165,6.049-8,12.324-12.128,18.4q-6.7,9.871-13.708,19.541a21.9,21.9,0,0,1-5.648,5.343,14.1,14.1,0,0,1-19-2.81C1725.675,931.6,1723.938,928.38,1724.184,924.461ZM1770.2,853.3c0,.5,0,.8,0,1.108.038,2.749.923,3.265,3.375,1.938.67-.362,1.314-.777,1.946-1.205a51,51,0,0,0,10.85-10.434c4.647-5.738,7.936-12.3,10.873-19.026a32.515,32.515,0,0,0,2.559-9.241c.072-.62.091-1.29-.591-1.53a1.76,1.76,0,0,0-1.3.137,45.772,45.772,0,0,0-7.915,5.425,68.347,68.347,0,0,0-15.629,19.565A33.741,33.741,0,0,0,1770.2,853.3Zm-6.621,39.853a6.22,6.22,0,0,0-1.276.251,38.431,38.431,0,0,0-8.622,5.217c-4.252,3.278-8.222,6.921-11.052,11.54-2.343,3.825-3.878,7.984-3.552,12.605a1.36,1.36,0,0,0,1.957,1.233,22.275,22.275,0,0,0,6.165-3.933,56.846,56.846,0,0,0,16.727-24.836,3.506,3.506,0,0,0,.2-1.332C1764.111,893.668,1763.8,893.45,1763.576,893.157Z" fill="#fff"/>
    <path d="M1776.017,678.214a102.863,102.863,0,0,1-30.715-4.854c-.731-.219-1.449-.493-2.157-.779a2.779,2.779,0,0,1-1.946-3.242c.634-3.779.417-7.619.992-11.42.684-4.523.846-9.124,1.272-13.688a11.231,11.231,0,0,1,.539-2.675,2.335,2.335,0,0,1,2.107-1.53,1.962,1.962,0,0,1,2.121,1.4c.5,1.279.964,2.581,1.34,3.9.545,1.912,1.045,3.84,1.482,5.779,2.108,9.371,8.283,14.771,17.212,17.188a36.208,36.208,0,0,0,19.508.288,25.238,25.238,0,0,0,11.868-6.615,18.219,18.219,0,0,0,5.4-15.012,8.733,8.733,0,0,0-1.9-5.069c-2.206-2.565-4.58-4.847-7.874-6.116a136.854,136.854,0,0,0-15.247-5.016c-4.3-1.1-8.625-2.126-12.846-3.475-6.308-2.016-12.254-4.714-16.846-9.795a25.623,25.623,0,0,1-6.885-16.581c-.077-1.833-.034-3.671-.037-5.507-.017-11.725,7.631-22.293,18.6-26.517a42.552,42.552,0,0,1,14.341-2.829,83.364,83.364,0,0,1,15.567.591c3.912.643,7.9.84,11.858,1.186a16.78,16.78,0,0,1,5.762,1.422c2.721,1.282,5.068,3.114,5.819,6.123,1.337,5.359,2.23,10.8.518,16.277a12.9,12.9,0,0,1-3.71,6.221,1.643,1.643,0,0,1-2.7-.414,28.742,28.742,0,0,1-1.195-2.974c-.736-2.011-1.321-4.086-2.185-6.039-4.31-9.745-12.17-14.631-22.452-15.846a22.519,22.519,0,0,0-11.732,1.347,14.66,14.66,0,0,0-7.335,6.623,17.51,17.51,0,0,0,8.664,24.859,105.112,105.112,0,0,0,14.769,5c5.187,1.328,10.348,2.757,15.536,4.082a33.529,33.529,0,0,1,11.855,5.848,19.52,19.52,0,0,1,5.727,7.647c3.863,8.267,4.568,16.756.912,25.339-2.475,5.81-6.684,10.213-11.659,13.9A55.764,55.764,0,0,1,1776.017,678.214Z" fill="#fff"/>
    <path d="M1678.278,678.219a86.82,86.82,0,0,1-22.267-2.7,57.824,57.824,0,0,1-6.155-1.837c-4.727-1.664-5.059-2.016-4.72-6.9.539-7.775,1.27-15.536,1.939-23.3a6.276,6.276,0,0,1,.389-1.782,2.623,2.623,0,0,1,2.479-1.73,2.263,2.263,0,0,1,2.392,1.75c.46,1.456.848,2.94,1.171,4.433.453,2.093.733,4.226,1.236,6.306a18.564,18.564,0,0,0,11.472,13.406,50.193,50.193,0,0,0,15.094,3.752c10.845.912,19.533-2.937,25.422-12.258,3.965-6.276,3.223-12.648-1.881-17.513a21.774,21.774,0,0,0-6.81-4.56,105.545,105.545,0,0,0-12.668-4.062c-4.138-1.114-8.259-2.3-12.423-3.3a49.089,49.089,0,0,1-10.672-4.14c-8.182-4.151-13.366-10.591-14.86-19.712a35.3,35.3,0,0,1,1.88-19.4,27.084,27.084,0,0,1,15.878-15.627A31.994,31.994,0,0,1,1675,566.85c1.524-.081,3.04-.325,4.563-.457a35.906,35.906,0,0,1,5.027-.33c5.188.29,10.37.705,15.55,1.117,2.285.181,4.556.556,6.843.7,5.833.365,9.624,3.248,11.657,8.761a31.064,31.064,0,0,1,1.969,13.051,8.569,8.569,0,0,1-1.552,4.727,2.715,2.715,0,0,1-3.239,1.054,9.062,9.062,0,0,1-5.26-4.83c-.976-1.9-1.949-3.811-3.035-5.65-4.657-7.882-11.724-11.8-20.732-12.439a31.307,31.307,0,0,0-12.641,1.787,12.209,12.209,0,0,0-7.343,6.534,19.476,19.476,0,0,0,.079,17.281,12.512,12.512,0,0,0,6.516,6.207,59.388,59.388,0,0,0,6.9,2.489q13.89,4.027,27.824,7.9c12.571,3.468,18.743,12.571,19.8,24.669A28.3,28.3,0,0,1,1723.788,657a36.531,36.531,0,0,1-9.449,9.908,57.715,57.715,0,0,1-25.526,10.86C1685.314,678.366,1681.79,678.106,1678.278,678.219Z" fill="#fff"/>
    <path d="M543.622,626.2c0-8.569-.064-17.14.029-25.708a73.623,73.623,0,0,0-1.07-10.947c-.3-2.179-1.1-2.881-3.3-3.105-1.519-.155-3.055-.149-4.585-.189a28.61,28.61,0,0,1-6.776-1.1,1.545,1.545,0,0,1-.882-2.23,5.7,5.7,0,0,1,3.234-3.083c1.142-.438,2.313-.8,3.473-1.194,5.556-1.872,8.9-5.571,9.961-11.448a35.345,35.345,0,0,0,.267-12.767c-.71-3.869-.065-7.631.862-11.353a10.331,10.331,0,0,1,5.08-6.269,55.12,55.12,0,0,1,12.22-5.2c2.145-.67,3.237.129,3.463,2.336.139,1.365.107,2.75.109,4.127.008,9.182,0,18.363.007,27.545.01,6.759.047,6.788,7.015,6.8,5.816.011,11.632.034,17.448,0,4.4-.027,5.19,1.021,4.239,5.214-.406,1.788-.656,3.61-1.016,5.409A3.742,3.742,0,0,1,590,586.245a55.016,55.016,0,0,1-10.036.958,28.218,28.218,0,0,0-8.172.992,8.468,8.468,0,0,0-6.647,7.34,28.091,28.091,0,0,0-.3,4.113c-.052,3.213-.038,6.427-.052,9.641a65.21,65.21,0,0,1-.587,11.443,23.747,23.747,0,0,0-.169,4.121c-.021,5.356.052,10.714-.044,16.068a51.8,51.8,0,0,0,1.178,11.392c1.421,6.873,4.061,10.535,12.775,10.069a28.183,28.183,0,0,0,4.077-.6c1.5-.3,2.958-.81,4.461-1.076,1.427-.253,3.17-1.424,4.243.154.977,1.437-.373,2.895-1.028,4.223a24.391,24.391,0,0,1-8.807,10.341A21.5,21.5,0,0,1,568.739,679c-5.554-.141-10.952-1.041-15.674-4.374a20.444,20.444,0,0,1-7.633-10.073,31.345,31.345,0,0,1-1.861-10.8c.057-9.182.019-18.364.019-27.546Z" fill="#fff"/>
    <path d="M1181.359,834.309q-2.754,0-5.507,0a18.429,18.429,0,0,0-6.256,1.29,11.8,11.8,0,0,0-7.544,7.5c-1.585,4.645-3.649,9.065-5.586,13.556a43.4,43.4,0,0,0-2.448,9.289c-.6,3.222.216,4.344,3.4,5.494a41.928,41.928,0,0,0,10.747,2.249,24.921,24.921,0,0,1,6.294,1.18c1.616.573,1.917,1.651,1.137,3.274a14.391,14.391,0,0,1-11.348,8.31c-6.7,1.076-12.786-.253-17.927-4.916-1.133-1.027-2.231-2.094-3.31-3.177a2.946,2.946,0,0,0-3.764-.532c-2.323,1.169-4.666,2.3-6.978,3.487a35.975,35.975,0,0,1-9.553,3.159,15.182,15.182,0,0,1-7.261-.322c-9.323-2.674-15.2-8.833-17.877-18.018-3-10.292-1.1-19.95,4.286-29.05a38.541,38.541,0,0,1,15.928-14.753c1.631-.842,3.3-1.614,4.909-2.493a11.31,11.31,0,0,0,6.086-9.634,58.766,58.766,0,0,0,.06-6.421,35.251,35.251,0,0,1,1.238-9.986c2.373-9.28,9.077-16.167,20.141-17.3a14.347,14.347,0,0,1,7.562,1.487,7.139,7.139,0,0,1,3.512,3.5c3.731,7.85,4.1,15.593-.952,23.074a26.913,26.913,0,0,1-7.479,7.351,37.032,37.032,0,0,0-5.078,3.914A17.672,17.672,0,0,0,1142.3,832.5c.958,5.572,2.176,11.1,3.321,16.639a5.965,5.965,0,0,0,.857,2.086.99.99,0,0,0,1.582.076,5.789,5.789,0,0,0,1.039-1.491c1.319-2.59,2.646-5.176,3.886-7.8,1.116-2.366.927-2.8-1.275-3.938-1.083-.562-2.172-1.119-3.213-1.754a7.07,7.07,0,0,1-2.466-2.664c-1.216-2.166-1.129-3.566.424-5.468a8.275,8.275,0,0,1,5.846-3.19c5.174-.536,10.375-.656,15.538-1.126,5.04-.457,10.061-.674,15.105-.7a12.95,12.95,0,0,1,4.53.561,6.638,6.638,0,0,1,4.313,7.674c-.38,1.79-1.281,2.752-3.087,2.839-2.441.118-4.892.029-7.339.029Zm-73.52,20.943c-.38,4.119.96,7.973,2.965,11.665,2.795,5.147,7.114,7.391,12.909,6.6a26.792,26.792,0,0,0,8.656-2.875,7.959,7.959,0,0,0,4.7-8.181,15.084,15.084,0,0,0-.673-4.047c-2.463-6.953-3.612-14.207-5.056-21.4-.451-2.246-.889-4.5-1.475-6.712-.475-1.794-1.418-2.214-3.1-1.315-7.162,3.822-13.152,8.859-16.732,16.37A19.638,19.638,0,0,0,1107.839,855.252Zm44.9-60.439a14.326,14.326,0,0,0-1.463-6.3,1.873,1.873,0,0,0-2.605-1.14,37.2,37.2,0,0,0-4.839,2.511,4.784,4.784,0,0,0-1.716,2.063c-2.01,4.68-2.469,9.693-2.775,14.692a2.218,2.218,0,0,0,3.657,1.688,44.362,44.362,0,0,0,8.443-8.9A7.688,7.688,0,0,0,1152.742,794.813Z" fill="#fff"/>
    <path d="M685.355,747.019c.163,2.9-.937,5.417-2.3,7.845-3.213,5.738-6.468,11.452-9.677,17.192-2.611,4.672-5.282,9.315-7.743,14.066-3.446,6.651-6.848,13.33-10.04,20.1A320.052,320.052,0,0,0,641.276,841.5a35.435,35.435,0,0,0-2.04,10.312,22.088,22.088,0,0,0,3.344,13.13c1.991,3.01,1.841,6.026.806,9.2a2.305,2.305,0,0,1-2.377,1.771c-3.171-.034-6.092-.649-8.137-3.392-.731-.979-1.56-1.89-2.239-2.9-.936-1.4-1.736-2.884-2.657-4.29-3.031-4.626-2.861-6.636-7-.666a26.483,26.483,0,0,1-11.886,9.083,7.779,7.779,0,0,1-7.463-.35c-4.636-2.78-7.99-6.492-9.178-12a33.532,33.532,0,0,1,.243-14.547c3.158-14.13,9.886-26.248,20.749-35.958,5.849-5.23,12.777-7.608,20.539-7.882,2.421-.085,5.055.585,7.2-.794,2.11-1.359,2.8-3.966,4.008-6.059,2.828-4.9,5.38-9.956,8.1-14.918,4.928-8.982,9.84-17.975,14.887-26.891a85.71,85.71,0,0,1,5.173-7.568c2.329-3.246,5.822-4.3,9.539-4.824a1.726,1.726,0,0,1,2.029,1.446C685.163,744.58,685.217,745.808,685.355,747.019ZM627.47,814.181c-2.533.212-5.094,1.756-7.4,3.882-9.009,8.295-13.262,18.861-14.65,30.764a18.887,18.887,0,0,0,.236,5.018c.2,1.292.179,3.02,1.761,3.451,1.471.4,2.53-.836,3.542-1.749a90.1,90.1,0,0,0,21.862-30.814,21.571,21.571,0,0,0,1.372-4.839c.427-2.3-.421-3.762-2.508-4.865A8.385,8.385,0,0,0,627.47,814.181Z" fill="#fff"/>
    <path d="M1563.22,863.663c.746-3.9,1.432-7.815,2.255-11.7a51.546,51.546,0,0,1,6.032-15.776c2.493-4.205,4.672-8.6,7.036-12.879,5.243-9.5,10.471-19.017,15.79-28.478,4.195-7.463,8.5-14.867,12.79-22.274,4.371-7.54,8.792-15.051,13.186-22.577,2.92-5,7.23-8.649,11.807-12.014,1.97-1.449,4.053-2.743,6.089-4.1a13.069,13.069,0,0,1,1.178-.712c6.25-3.252,11.714-.82,13.335,6,1.186,5-.094,9.724-2,14.277a91.046,91.046,0,0,1-7.534,13.641,311.286,311.286,0,0,1-22.472,31.279c-5.557,6.7-11.077,13.448-17.349,19.53-5.05,4.9-9.926,9.977-14.969,14.884a31.226,31.226,0,0,0-6.882,9.652c-1.811,4.047-3.488,8.154-5.173,12.255a2.331,2.331,0,0,0,.815,3.218c1.551,1.067,3.033,1.121,4.121-.2,4.773-5.79,10.742-10.453,15.326-16.429a41.314,41.314,0,0,1,4.878-4.831,1.4,1.4,0,0,1,1.253-.141,1.469,1.469,0,0,1,.731,1.036,10.3,10.3,0,0,1-.178,2.269,43.332,43.332,0,0,1-6.392,16.584c-2.009,3.243-4.291,6.33-6.6,9.369a30.829,30.829,0,0,1-8.943,7.807c-5.2,3.067-11.456,2.872-15.684-2.395A11.54,11.54,0,0,1,1563.22,863.663Zm74.763-116.249c-.769-.289-1.175.237-1.6.634a122.491,122.491,0,0,0-17.662,20.4c-7.419,10.91-13.16,22.731-18.844,34.584a11,11,0,0,0-.636,1.719c-.156.539-.552,1.13.124,1.618,2.645-1.875,11.476-10.515,14.046-13.653a167.37,167.37,0,0,0,16.459-23.678,85.179,85.179,0,0,0,7.636-18.121C1637.835,749.8,1638.458,748.647,1637.983,747.414Z" fill="#fff"/>
    <path d="M500.486,612.118q0,19.284.009,38.567a49.925,49.925,0,0,0,.215,5.5,8.8,8.8,0,0,0,6.515,8.029c1.311.406,2.66.7,4,.988a6.4,6.4,0,0,1,2.887,1.318c2.262,1.906,2.085,4.52-.5,6.017a7.127,7.127,0,0,1-2.587.829,27.983,27.983,0,0,1-3.666.132q-20.434.013-40.868,0a29.9,29.9,0,0,1-4.117-.215,2.641,2.641,0,0,1-2.32-2.92,5.332,5.332,0,0,1,4.584-4.983,34.509,34.509,0,0,1,3.661-.229c5.112-.3,8.31-2.633,9.07-9.027a51.041,51.041,0,0,0,.129-5.962q.015-22.039.01-44.078a76.531,76.531,0,0,1,.407-8.241,27.526,27.526,0,0,0-1.191-10.415,8.138,8.138,0,0,0-6.4-5.942,10.884,10.884,0,0,0-4.535-.452c-3.489.672-5.785-1.4-8.117-3.394a1.235,1.235,0,0,1,.318-1.949,14.889,14.889,0,0,1,2.153-.755q16.865-4.469,33.736-8.9a28.188,28.188,0,0,1,3.138-.688c2.125-.306,3.129.484,3.348,2.7.134,1.366.105,2.751.106,4.128Q500.492,592.146,500.486,612.118Z" fill="#fff"/>
    <path d="M855.648,871.131c-3.5.409-6.345-1.4-8.418-4.943-2.834-4.841-3.9-9.81-2.524-15.382,2.532-10.252,5.574-20.349,8.712-30.423,1.137-3.65,2.2-7.321,3.357-10.965a4.184,4.184,0,0,0-.827-4.265c-1.176-1.406-2.294-2.864-3.371-4.348a1.969,1.969,0,0,1,.616-3.12,6.083,6.083,0,0,1,1.213-.643c5.108-1.794,9.516-4.892,14.053-7.7,4.2-2.6,7.436-6.34,10.453-10.2,3.672-4.7,7.183-9.521,10.772-14.283.643-.854,1.3-1.7,2-2.507a3.334,3.334,0,0,1,4.126-.957c2.73,1.105,3.283,2.138,2.3,4.945-1.319,3.75-2.721,7.47-4.076,11.207a11.421,11.421,0,0,0-.67,2.183,1.473,1.473,0,0,0,1.094,1.774c2.085.469,4.2.807,6.3,1.228a47.828,47.828,0,0,1,5.367,1.178c2.79.9,3.664,3.177,2.435,5.819a6.154,6.154,0,0,1-3.645,3.284,18.254,18.254,0,0,1-4.94.947,12.961,12.961,0,0,0-6.106,1.813c-3.128,2-6.586,3.214-9.966,4.631a32.993,32.993,0,0,0-3.282,1.622,9.663,9.663,0,0,0-4.292,4.617c-1.611,3.633-3.411,7.188-4.892,10.872-3.192,7.945-6.25,15.944-9.326,23.934-1.428,3.71-2.757,7.458-4.161,11.177a4.518,4.518,0,0,0-.049,3.554c.753,1.771,1.693,2.279,3.613,1.774a18.663,18.663,0,0,0,7.891-4.5,55.95,55.95,0,0,0,7.517-9.226,76.736,76.736,0,0,1,8.689-10.64,25.541,25.541,0,0,1,2.049-1.83,1.305,1.305,0,0,1,1.682-.141,1.581,1.581,0,0,1,.532,1.191c-.593,4.22-.619,8.636-3.123,12.323-4.9,7.21-9.887,14.362-16.378,20.3A19.826,19.826,0,0,1,855.648,871.131Z" fill="#fff"/>
    <path d="M1619.418,856.714a32.176,32.176,0,0,1,1.394-10.069c2.994-10.769,6.192-21.476,11.382-31.456.212-.407.374-.843.61-1.235,1.213-2.024.823-3.711-.876-5.308-1.67-1.57-3.25-3.245-4.772-4.96a1.888,1.888,0,0,1,.365-3.129c1.019-.669,2.133-1.194,3.206-1.78,2.953-1.612,5.889-3.257,8.865-4.827a44.013,44.013,0,0,0,14.32-12.674c3.623-4.74,7.272-9.462,10.9-14.195.466-.607.871-1.262,1.359-1.85,2.161-2.609,4.529-2.712,7.028-.327a2.314,2.314,0,0,1,.541,2.547c-.857,2.616-1.771,5.215-2.684,7.813-.861,2.454-1.785,4.886-2.609,7.352a1.307,1.307,0,0,0,1.334,1.866,48.029,48.029,0,0,0,5-.525,10.134,10.134,0,0,1,8.467,2.657,2.683,2.683,0,0,1,.719,3.692,9.438,9.438,0,0,1-6.134,5.09c-5.01,1.391-9.923,3.124-14.891,4.671a19.573,19.573,0,0,0-11.395,9.349A141.385,141.385,0,0,0,1643.5,826.4c-3.391,8.034-6.3,16.273-9.679,24.31-1.558,3.7-1.058,7.159-.02,10.729a1.263,1.263,0,0,0,2.156.673c2.793-2.379,5.612-4.733,8.31-7.217a88.854,88.854,0,0,0,13.75-15.959,19.851,19.851,0,0,1,2.007-2.5c1.394-1.491,2.381-1.745,3.593-1.079,1.3.716,1.39,1.871,1.223,3.166a23.849,23.849,0,0,1-4.108,11.079c-3.207,4.478-6.53,8.858-10.051,13.105a39.234,39.234,0,0,1-7.633,7.214,23.062,23.062,0,0,1-10.7,3.815c-4.5.551-7.655-1.673-9.92-5.3A19.259,19.259,0,0,1,1619.418,856.714Z" fill="#fff"/>
    <path d="M1440.261,852.882a12.1,12.1,0,0,1,7.747-12.326c1.882-.708,3.023-.149,3.311,1.809.422,2.871.785,5.756,1.024,8.647a36.131,36.131,0,0,0,1.7,8.059,5.707,5.707,0,0,0,3.191,3.71,25.047,25.047,0,0,0,7.083,1.819,1.865,1.865,0,0,0,2.139-1.36c.723-2.649,1.392-5.32,1.913-8.016.266-1.377-.362-2.713-.869-3.991a45.535,45.535,0,0,0-3.615-6.9,39.731,39.731,0,0,1-5.673-13.944,17.486,17.486,0,0,1,4.136-14.94,27.178,27.178,0,0,1,7.476-6.007,78.5,78.5,0,0,1,26.853-8.931c5.372-.829,12.713,2.247,13.573,11.121.517,5.329-1.623,9.689-5.128,13.262-5.207,5.308-11.259,9.385-18.806,10.791a10.038,10.038,0,0,1-6.262-.655c-2.634-1.219-3.531-3.353-2.537-6.03a8.012,8.012,0,0,1,4.607-4.839c1.981-.81,3.991-1.549,5.988-2.321,1-.385,2.015-.73,2.988-1.172a5.443,5.443,0,0,0,3.072-3.781c.783-2.972-.353-4.738-3.394-5.253a3.972,3.972,0,0,0-.91-.1c-10.833.73-19.4,8.079-17.979,19.746a18.937,18.937,0,0,0,1.974,6.564c1.495,2.841,2.977,5.69,4.569,8.476a43.462,43.462,0,0,1,4.288,10.1,15.128,15.128,0,0,1-2.3,13.114c-2.807,4.03-6.3,7.541-11,9.436-5.436,2.187-10.846,2.138-15.763-1.259A29.881,29.881,0,0,1,1440.261,852.882Z" fill="#fff"/>
    <path d="M1409.684,859.654a29.718,29.718,0,0,1,.93-8.623c.3-1.334.527-2.686.722-4.039a.907.907,0,0,0-1.293-.751,11.709,11.709,0,0,0-1.876,1.955c-1.914,2.766-3.707,5.617-5.642,8.368-2.2,3.125-4.517,6.165-6.754,9.263-2.292,3.175-5.82,4.33-9.229,5.65-1.058.41-2-.164-2.565-1.373a13.684,13.684,0,0,1-.853-10.688c.861-2.451,1.743-4.908,2.835-7.261a209.531,209.531,0,0,1,17.1-30.86c2.514-3.65,5.2-7.178,7.8-10.774a3.137,3.137,0,0,1,3.608-1.292c2.053.5,2.816,1.285,2.917,3.5a32.97,32.97,0,0,1-.4,7.771,1.624,1.624,0,0,0,.217,1.271c.516.5,1.128.1,1.638-.2,3.666-2.212,7.295-4.484,10.994-6.638a69.8,69.8,0,0,1,6.51-3.367c2.645-1.186,5.686-1.6,7.779.5,2.262,2.264,1.822,5.478.372,8.157-1.96,3.623-4.209,7.095-6.429,10.571s-4.515,6.916-6.861,10.313a86.222,86.222,0,0,0-5.884,10.359,34.863,34.863,0,0,0-3.125,11.447c-.439,3.424.492,6.684,1.493,9.9a17.364,17.364,0,0,1,1.131,6.737c-.6,6.709-2.309,6.479-7.165,4.47a7.117,7.117,0,0,1-4.13-4.6A77.283,77.283,0,0,1,1409.684,859.654Z" fill="#fff"/>
    <path d="M1006.672,814.829c.247,1.581-1.021,3.649.15,4.445,1.6,1.09,2.932-.982,4.265-1.821,3.749-2.358,7.259-5.151,11.69-6.2,2.825-.667,5.656-1.341,8.515-1.825,2.37-.4,3.342.512,2.849,2.749-.919,4.173-1.8,8.386-4.188,12.062-3.832,5.9-7.623,11.825-11.5,17.7a45.4,45.4,0,0,0-5.561,12.031c-1.825,6.06-1.91,12.056.662,17.933a10.4,10.4,0,0,1,.486,7.587c-.985,3.134-1.945,3.679-5.024,2.89a8.554,8.554,0,0,1-6.733-6.679,168.146,168.146,0,0,1-3.63-19.837c-.295-2.169.543-4.229.778-6.349.156-1.416,1.306-3.306-.735-3.976-1.569-.515-2.173,1.36-2.906,2.441-3.69,5.441-7.395,10.873-10.952,16.4-2.185,3.4-5.348,4.859-9.151,5.386a3.2,3.2,0,0,1-3.473-1.658,7.962,7.962,0,0,1-1.025-6.6c.85-2.777,1.681-5.571,2.738-8.273a153.107,153.107,0,0,1,12.726-24.872c3.31-5.332,6.783-10.544,10.473-15.615,1.169-1.607,2.353-3.206,3.615-4.74a3.079,3.079,0,0,1,3.748-.831,2.957,2.957,0,0,1,2.159,2.69C1006.74,811.544,1006.672,813.229,1006.672,814.829Z" fill="#fff"/>
    <path d="M776.886,857.494a46.916,46.916,0,0,1,3.009-13.832,83.343,83.343,0,0,1,14.066-25.586,62.255,62.255,0,0,1,12.713-11.83,15.708,15.708,0,0,1,7.609-2.994c3.8-.292,7.63-.243,11.446-.243a3.09,3.09,0,0,1,3.135,2.811c.556,2.846,1.007,5.713,1.457,8.578.166,1.054.094,2.153.321,3.19,1.133,5.185-.193,10.008-2.154,14.717-.7,1.686-1.673,3.26-2.533,4.879a36.556,36.556,0,0,0-3.109,8.1c-.96,3.733-.113,7.325.478,10.9a77.162,77.162,0,0,0,3.285,14.276,13,13,0,0,1,.6,2.21,2.526,2.526,0,0,1-1.893,3.174,10.066,10.066,0,0,1-11.685-2.739c-1.027-1.12-1.863-2.416-2.777-3.638-1.282-1.712-2.524-3.455-3.848-5.133a1.2,1.2,0,0,0-1.974-.128c-3.556,4.268-8.564,6.315-13.351,8.619-4.1,1.972-6.75,1.15-9.631-2.439C779.026,866.616,776.624,862.59,776.886,857.494Zm13.958-6.784c.06,2.745.032,4.74.931,6.595a1.815,1.815,0,0,0,2.644.929,4.014,4.014,0,0,0,.76-.508c3.207-3.053,6.53-5.987,9.065-9.684,4.872-7.1,8.172-15.022,11.954-22.693.809-1.641,1.521-3.341,2.464-4.9,2.419-4,2.045-4.868-2.9-6.019a5.691,5.691,0,0,0-3.577.478,18.231,18.231,0,0,0-4.9,3.339c-6.428,5.72-10.783,12.852-14.058,20.683A32.3,32.3,0,0,0,790.844,850.71Z" fill="#fff"/>
    <path d="M1728.89,816.29c.06.943.1,2.625.309,4.284a1.036,1.036,0,0,0,1.4.807,19.3,19.3,0,0,0,2.8-1.537c2.99-1.854,5.935-3.781,8.949-5.6a21.138,21.138,0,0,1,11.858-2.963c2.062.07,2.651.827,2.576,2.9a22.626,22.626,0,0,1-3.613,11.679c-2.648,4.116-5.209,8.279-8.1,12.246a80.408,80.408,0,0,0-7.864,13.454c-3.453,7.429-4.021,15.058-1.091,22.729,1.248,3.266.819,6.292-.066,9.412a1.663,1.663,0,0,1-2.1,1.3c-1.479-.372-2.929-.87-4.376-1.357a6.152,6.152,0,0,1-4.364-5.379c-.644-4.542-1.344-9.076-1.953-13.622-.671-5-1.263-10.01-1.9-15.014-.058-.453-.192-1.014-.69-1.026a1.541,1.541,0,0,0-1.088.61c-2.653,3.744-5.255,7.525-7.9,11.278-.968,1.375-2.08,2.653-3,4.061-2.382,3.661-6.027,5.549-9.866,7.171a1.773,1.773,0,0,1-2.628-1.021c-1.584-3.746-2.357-7.432-.745-11.528,5.565-14.145,12.059-27.771,21.039-40.12a59.541,59.541,0,0,1,5.964-7.55,9.651,9.651,0,0,1,1.7-1.514,3.806,3.806,0,0,1,3.937,0c1.131.611,1.13,1.712,1.051,2.81C1729.082,813.721,1729.013,814.636,1728.89,816.29Z" fill="#fff"/>
    <path d="M708.162,818.262c.63,3.946-.813,7.966-2.593,11.906-1.762,3.9-3.5,7.812-5.369,11.665a24.522,24.522,0,0,0-2.635,9.682c-.19,5.015,1.1,9.768,4.926,13.344a14.4,14.4,0,0,1,4.429,8.819,11.736,11.736,0,0,1,.152,1.822,2.424,2.424,0,0,1-2.057,2.636,19.612,19.612,0,0,1-7.3.037c-1.917-.384-3.193-1.774-4.33-3.221-2.079-2.643-4.074-5.354-6.1-8.041-.46-.61-.877-1.254-1.352-1.853-1.914-2.412-2.478-3.088-4.715-.175a73.458,73.458,0,0,1-5.624,6.029,15.3,15.3,0,0,1-5.831,3.553,10.567,10.567,0,0,1-13.12-4.478,17.666,17.666,0,0,1-2.554-12.317,77.087,77.087,0,0,1,5.04-17.587,94.564,94.564,0,0,1,12.411-20.812,27.9,27.9,0,0,1,7.33-6.861,11.983,11.983,0,0,1,4.68-1.784c2.72-.387,4.109.7,4.337,3.37a8.444,8.444,0,0,1-1.047,5.307c-1.279,2.085-2.534,4.185-3.84,6.253-.9,1.422-1.812,2.84-2.811,4.191-5.8,7.843-9.506,16.711-12.659,25.848-.2.578-.4,1.159-.558,1.748a2.3,2.3,0,0,0,.16,2.183,2.591,2.591,0,0,0,2.991.375c3.16-1.886,6.179-3.975,8.349-7.039a65,65,0,0,0,5.529-8.972q4.428-9.071,8.991-18.076a45.045,45.045,0,0,1,9.679-13.269c1.2-1.093,2.245-3.079,4.084-2.449,1.955.67,1.244,2.858,1.385,4.456C708.238,815.614,708.162,816.691,708.162,818.262Z" fill="#fff"/>
    <path d="M1557.041,820.333a24.216,24.216,0,0,1-2.367,11.365q-2.833,6.016-5.582,12.074c-.569,1.251-1.063,2.539-1.521,3.836-2.631,7.455-1.242,14.181,3.917,20.08a17.864,17.864,0,0,1,4.188,9.022c.383,2.252-.279,3.187-2.485,3.431-1.212.134-2.446.064-3.665.145a8.485,8.485,0,0,1-6.935-2.877,72.88,72.88,0,0,1-7.182-8.922c-.62-.869-1.239-1.745-1.936-2.55a1.213,1.213,0,0,0-1.67-.173,13.067,13.067,0,0,0-1.734,1.482c-1.415,1.4-2.8,2.828-4.2,4.237a18.616,18.616,0,0,1-9.251,4.791,8.831,8.831,0,0,1-8.824-2.536,16.123,16.123,0,0,1-5.05-11.44,38.6,38.6,0,0,1,1.685-11.3,78.917,78.917,0,0,1,10.185-22.48,69.277,69.277,0,0,1,8.371-10.309,26.371,26.371,0,0,1,5.125-3.845,9.168,9.168,0,0,1,6.19-1.162,2.643,2.643,0,0,1,2.381,2.416,9.533,9.533,0,0,1-1.568,6.987q-4.213,6.293-8.373,12.62a72.061,72.061,0,0,0-6.7,12.517,51.7,51.7,0,0,0-2.987,10.577c-.127.74-.454,1.624.249,2.152.9.678,1.732-.021,2.472-.518a37.071,37.071,0,0,0,10.951-10.937c1.792-2.839,3.344-5.836,4.911-8.81,1.925-3.652,3.8-7.324,5.826-10.928a47.785,47.785,0,0,1,9.959-11.907c1.217-1.1,2.572-2.809,4.277-2.193,1.905.688,1.137,2.9,1.339,4.5A3.711,3.711,0,0,1,1557.041,820.333Z" fill="#fff"/>
    <path d="M1387.171,815.237c-.853,7.016-1.811,14.4-5.27,21.248a179.528,179.528,0,0,1-20.945,31.669c-4.013,4.972-9.377,7.21-15.443,8.089a8.747,8.747,0,0,1-8.536-3.4c-2.752-3.524-4.339-7.7-6.155-11.735a6.1,6.1,0,0,1,.043-3.62,54.875,54.875,0,0,1,4.033-12.634,97.284,97.284,0,0,1,15.216-24.426c5.429-6.283,11.516-11.825,19.141-15.415a19.231,19.231,0,0,1,7.923-2.069c5.642-.094,8.934,2.635,9.737,8.192C1387.089,812.34,1387.073,813.572,1387.171,815.237Zm-41.3,37.145a19.46,19.46,0,0,0,1.236,6.15,1.939,1.939,0,0,0,2.081,1.468c3.159-.311,6.012-1.1,7.423-4.436,1.309-3.1,2.805-6.114,4.146-9.2q5.58-12.83,11.077-25.694c.456-1.07,1.665-2.427.707-3.349-1.242-1.2-2.556.239-3.58.97-9.012,6.432-16.158,14.453-20.62,24.688A31.042,31.042,0,0,0,1345.876,852.382Z" fill="#fff"/>
    <path d="M765.174,814.71a18.481,18.481,0,0,1-5.264,13.279,23.616,23.616,0,0,1-9.824,6.538c-1.4.442-3.011,1.724-4.294.548-1.35-1.237-.094-2.875.43-4.227,1.047-2.706,2.266-5.346,3.4-8.019.418-.98.836-1.962,1.2-2.964.2-.566-.512-1.315-1.041-1.105a12.587,12.587,0,0,0-2.48,1.142,50.167,50.167,0,0,0-18.408,21.765,55.809,55.809,0,0,0-3.91,11.729c-.572,3.016.206,5.433,2.886,7.119a5.951,5.951,0,0,0,4.825.826,16.542,16.542,0,0,0,5.03-2.175,78.259,78.259,0,0,0,8.144-5.946c5.684-4.865,11.715-9.35,16.434-15.254.8-1,1.713-1.8,3.117-1.44a3.823,3.823,0,0,1,2.709,2.846,6.364,6.364,0,0,1-.633,4.859c-1.829,3.92-4.543,7.242-7.067,10.7-5.153,7.055-11.846,12.293-19.413,16.49a37.627,37.627,0,0,1-9.342,3.752c-4.808,1.165-9.421.652-13.548-2.38a16.542,16.542,0,0,1-5.534-7.733,19.876,19.876,0,0,1-1.224-10.333,58.8,58.8,0,0,1,6.573-18.463,103.266,103.266,0,0,1,14.4-20.072,56.069,56.069,0,0,1,14.805-11.466,20.228,20.228,0,0,1,6.542-2.059,9.023,9.023,0,0,1,10.27,5.766A16.61,16.61,0,0,1,765.174,814.71Z" fill="#fff"/>
    <path d="M976.489,813.03a44.3,44.3,0,0,1-2.029,12.946c-2.863,10.18-8.283,19.025-14.31,27.553a142.062,142.062,0,0,1-12.531,15.214c-4.314,4.591-10.006,6.249-16.326,5.261a7.247,7.247,0,0,1-4.9-3.122c-.8-1.122-1.525-2.292-2.284-3.441a14.6,14.6,0,0,1-2.064-11.754c2.457-11.674,6.47-22.635,13.3-32.468,5.677-8.17,13.1-14.466,21.544-19.6a37.042,37.042,0,0,1,5.4-2.5,13.142,13.142,0,0,1,4.937-.913,8.2,8.2,0,0,1,8.021,5.051A16.9,16.9,0,0,1,976.489,813.03ZM935.067,852.4c.06.8.067,1.417.157,2.02.4,2.655,1.793,3.752,4.4,3.506a7.078,7.078,0,0,0,3.025-.989,12.367,12.367,0,0,0,3.639-3.451,78.753,78.753,0,0,0,5.428-8.495c4.839-8.961,7.437-18.73,10.387-28.374a4.247,4.247,0,0,0,.167-.9,1.455,1.455,0,0,0-2.314-1.556,7.888,7.888,0,0,0-1.172.714,60.159,60.159,0,0,0-20.177,24.483A39.828,39.828,0,0,0,935.067,852.4Z" fill="#fff"/>
    <path d="M923.982,808.878a12.876,12.876,0,0,1-1.2,6.03c-2.367,5.294-4.723,10.593-7.119,15.873-1.7,3.753-3.425,7.5-5.2,11.213-4.279,8.953-8.642,17.864-12.864,26.843a14.168,14.168,0,0,1-5.556,5.9,2.528,2.528,0,0,1-3.679-.5c-2.336-2.485-3.476-5.25-2.5-8.769a132.242,132.242,0,0,1,16.312-38.154,194.49,194.49,0,0,1,14.779-20.366,11.214,11.214,0,0,1,1.269-1.319c2.174-1.95,4.96-1.116,5.587,1.688A9,9,0,0,1,923.982,808.878Z" fill="#fff"/>
    <path d="M1663.484,868.36A42.2,42.2,0,0,1,1667,855.122a155.27,155.27,0,0,1,23.8-39.52c2.239-2.721,4.38-5.516,7.23-7.626,1.056-.782,2.191-2.247,3.563-1.562,1.5.748.684,2.482.509,3.742a36.409,36.409,0,0,1-3.1,10.491c-5.425,11.636-10.819,23.284-16.516,34.791-2.372,4.793-4.665,9.629-6.83,14.519-1.513,3.416-4.214,5.552-7.225,7.432a1.868,1.868,0,0,1-2.757-.717A15.263,15.263,0,0,1,1663.484,868.36Z" fill="#fff"/>
    <path d="M488.6,514.456c4.916.089,8.309,1.8,10.383,5.682,2.324,4.351,3.165,8.878,1.4,13.68-1.913,5.221-6.313,7.731-11.946,7.078a22.283,22.283,0,0,1-5.282-1.457,11.528,11.528,0,0,1-6.429-6.2c-3.332-7.114-2.529-10.612,3.7-15.379C483.011,515.887,485.719,514.162,488.6,514.456Z" fill="#fff"/>
    <path d="M946.065,770.655a19.821,19.821,0,0,1-2.237,8.8,9.445,9.445,0,0,1-4.13,4.173,8.194,8.194,0,0,1-8.7-.221,5.9,5.9,0,0,1-2.366-7.938,19.157,19.157,0,0,1,9.212-9.19,14.475,14.475,0,0,1,4.767-1.551,2.345,2.345,0,0,1,2.579,1.471A10.774,10.774,0,0,1,946.065,770.655Z" fill="#fff"/>
    <path d="M1724.328,773.362c-.017,5.415-3.945,11-8.72,12.7a7.09,7.09,0,0,1-1.778.424c-2.908.238-5.612-.346-7.24-2.962-1.523-2.446-1.063-5.11.434-7.391a21.8,21.8,0,0,1,13.255-9.2c1.533-.4,2.6.3,3.265,1.824A11.557,11.557,0,0,1,1724.328,773.362Z" fill="#fff"/>
    <path d="M1807.809,975.617c5.632.275,11.073,1.163,16.575,1.087a2.692,2.692,0,0,1,1.287.394,1.069,1.069,0,0,1,.415,1.556,2.231,2.231,0,0,1-.527.735,31.86,31.86,0,0,1-7.605,5.026,12.77,12.77,0,0,1-16.5-6.479,1.36,1.36,0,0,1,1.029-2.064C1804.3,975.716,1806.13,975.691,1807.809,975.617Z" fill="#fff"/>
  </g>
</svg>
